<?xml version="1.0" encoding="utf-8"?>
<!-- Generator: Adobe Illustrator 23.0.1, SVG Export Plug-In . SVG Version: 6.00 Build 0)  -->
<svg version="1.1" id="Camada_1" xmlns="http://www.w3.org/2000/svg" xmlns:xlink="http://www.w3.org/1999/xlink" x="0px" y="0px"
	 viewBox="0 0 500 500" style="enable-background:new 0 0 500 500;" xml:space="preserve">
<style type="text/css">
	.st0{opacity:0.3;fill:#ABE5FF;}
	.st1{opacity:0.3;fill:#183D69;}
	.st2{fill:#0F66FF;}
	.st3{fill:#D0D0F7;}
	.st4{fill:#183D69;}
	.st5{fill:#FFFFFF;}
	.st6{fill:#FFFFFF;stroke:#183D69;stroke-miterlimit:10;}
	.st7{fill:#B01F1A;}
	.st8{fill:#FAC896;}
	.st9{fill:#B14BF1;}
	.st10{opacity:0.5;fill:#ABE5FF;}
	.st11{fill:#98BEF7;}
	.st12{fill:#EDF2F9;}
	.st13{fill:#7BB9F5;}
	.st14{fill:#F14B76;}
	.st15{fill:#FFAE33;}
	.st16{fill:#5C8BEA;}
	.st17{fill:#2355F5;}
	.st18{fill:#F39C55;}
	.st19{fill:#F97700;}
	.st20{fill:#FDBD28;}
	.st21{clip-path:url(#SVGID_1_);fill:#F97700;}
	.st22{opacity:0.25;fill:#183D69;}
	.st23{fill:#ABE5FF;}
	.st24{fill:#C6DDFF;}
	.st25{opacity:0.12;enable-background:new    ;}
	.st26{clip-path:url(#SVGID_2_);fill:#8C99DE;}
	.st27{clip-path:url(#SVGID_3_);fill:#8C99DE;}
	.st28{clip-path:url(#SVGID_4_);fill:#8C99DE;}
	.st29{clip-path:url(#SVGID_5_);fill:#8C99DE;}
	.st30{clip-path:url(#SVGID_6_);fill:#8C99DE;}
	.st31{clip-path:url(#SVGID_7_);fill:#8C99DE;}
	.st32{clip-path:url(#SVGID_8_);fill:#8C99DE;}
	.st33{clip-path:url(#SVGID_9_);fill:#8C99DE;}
	.st34{clip-path:url(#SVGID_10_);fill:#8C99DE;}
	.st35{clip-path:url(#SVGID_11_);fill:#8C99DE;}
	.st36{clip-path:url(#SVGID_12_);fill:#8C99DE;}
</style>
<g>
	<path class="st0" d="M441.1,445.3H500c0,0,2.5-132.6-28.7-170.1c-31.1-37.5-33-99.7-49.3-106.4s-26.5,4.6-41,5.8
		c-70.6,6-118.9-88.5-188.9-90.7c-15.9-0.5-33.3,4.7-45.6,20.3c-6.7,8.5-11.2,19.3-13.9,30.6c-3.3,13.1-1.4,30.4-12.9,38.2
		c-8.4,5.7-20.2,3.5-33.8,22.4c-13.6,18.8-11.1,49.3-39.5,91.1C18.1,328.3,0,446.6,0,446.6h63.8C136.7,424,350.5,419.3,441.1,445.3"
		/>
	<path class="st1" d="M84.1,370.9c7.5-1.9,13.9-2.2,14.3-0.6c0.4,1.5-5.4,4.3-12.9,6.1c-7.5,1.9-13.9,2.2-14.3,0.6
		C70.8,375.5,76.6,372.7,84.1,370.9"/>
	<path class="st2" d="M96.4,369.2c5.4-23-3.6-17.4-6.6-7.7c-9.7-46.7-17.3-12.1-10.4,0.3c-27.1-40-21-4.6-7.2,4.1
		c-25.7-13.8-20.4,2.3-3.9,8.5C84.7,380.6,96.4,369.2,96.4,369.2"/>
	<path class="st3" d="M104.3,374.3c-107.3,30.3-87.6,72.3-87.6,72.3h480.2c0,0-10-100.5-108.2-118.6
		C290.5,310,211.6,344,104.3,374.3"/>
	<path class="st4" d="M378.4,68.1H146.6c-4,0-7.2,3.2-7.2,7.2v0.2c0,4,3.2,7.2,7.2,7.2h7.1v163.9h215.8V82.7h8.8
		c4,0,7.2-3.2,7.2-7.2v-0.2C385.6,71.3,382.3,68.1,378.4,68.1"/>
	<rect x="149.6" y="75.5" class="st5" width="215.8" height="171.2"/>
	<path class="st2" d="M139.8,68.2h238.9c1.6,0,2.8,1.3,2.8,2.8V80c0,1.6-1.3,2.8-2.8,2.8H139.8c-1.6,0-2.8-1.3-2.8-2.8v-8.9
		C136.9,69.5,138.2,68.2,139.8,68.2"/>
	<path class="st6" d="M322.1,235.9c0,0-8.5-6.8-10.9-6.9c-2.3-0.1-8.2,2-6.8,7.6c1.4,5.6,3.4,6.4,16.2,8.5
		C333,247.2,322.1,235.9,322.1,235.9"/>
	<path class="st4" d="M428.9,367.1c0,0,10,0.4,10,1.3c0,1,3.6,17.4,1,20c-2.6,2.6-6.3-14.6-11.3-15.5
		C423.6,371.9,425.5,367.4,428.9,367.1"/>
	<path class="st4" d="M367.2,397.9c0,0,1.8,9.5,0.6,10.9c-1.2,1.5-26.2,1.7-26.4,0c-0.2-1.7,20.5-7.2,21.8-12.3
		C364.3,391.4,366.9,396,367.2,397.9"/>
	<path class="st7" d="M402.8,316.6c0,0-14.8,31.3-15.9,38.3c0,0-9.2-8-12.6-17.4C370.8,328.2,402.8,316.6,402.8,316.6"/>
	<path class="st8" d="M384.9,226l-5.2-10.1c-1.5-2.9-5.1-4-8-2.5l-0.2,0.1c-2.9,1.5-4,5.1-2.5,8l5.2,10.1c1.5,2.9,5.1,4,8,2.5
		l0.2-0.1v0C385.3,232.5,386.4,228.9,384.9,226z"/>
	<path class="st8" d="M380.7,234c1.7-5.5-4.7-9.9-9.3-6.6c-2.1,1.5-4,3-5.9,4.7c-4,3.7-5.7,11.3,0,11.7c5.7,0.4,13.5-3.6,13.4-4.9
		C378.7,238.4,379.9,236.4,380.7,234"/>
	<path class="st2" d="M370.3,228.2c0,0-15.4,11-28.4,13.9c-12,2.6-18.7-7.7-21.1-7.2c-0.2-0.1,0.3,8.5-1.5,10.1
		c0,0.2,24.9,28.1,44,14C363.2,258.8,364.3,232.7,370.3,228.2"/>
	
		<rect x="307.7" y="219.5" transform="matrix(0.9706 -0.2408 0.2408 0.9706 -47.4082 81.4479)" class="st9" width="3.8" height="30.4"/>
	
		<rect x="310.6" y="219.3" transform="matrix(0.9705 -0.2412 0.2412 0.9705 -47.3755 81.8554)" class="st5" width="0.3" height="30.4"/>
	
		<rect x="309.5" y="219.5" transform="matrix(0.9707 -0.2404 0.2404 0.9707 -47.3476 81.3068)" class="st5" width="0.3" height="30.4"/>
	
		<rect x="308.4" y="219.8" transform="matrix(0.9704 -0.2414 0.2414 0.9704 -47.6132 81.446)" class="st5" width="0.3" height="30.4"/>
	
		<rect x="311.2" y="247.9" transform="matrix(0.9706 -0.2405 0.2405 0.9706 -50.6367 82.613)" class="st4" width="3.8" height="1.6"/>
	<path class="st5" d="M315.1,249l0.1,0.4c0.3,1-0.4,2-1.4,2.3c-1,0.3-2-0.4-2.3-1.4l-0.1-0.4L315.1,249z"/>
	<polygon class="st5" points="304.1,220.4 307.8,219.5 306.1,217.3 305.7,216.9 304.7,215.6 304.5,217.2 304.5,217.9 	"/>
	<path class="st4" d="M304.5,217.2c0.2,0,0.4,0,0.6-0.1c0.2,0,0.4-0.2,0.6-0.3l-1-1.3L304.5,217.2z"/>
	<path class="st6" d="M409.6,274.7c-0.6,2.2-0.5,4.6,0.4,6.8c1.2,3,3.2,8.1,3.6,9.7c0.7,2.3,0,8.3,3.7,12.1c3.7,3.8,7.2-2.2,6.7-4.5
		c-0.4-2.3-4-11.3-3.7-12.7c0.3-1.4-1-12.3-1.7-13C416.6,270.9,411.5,268,409.6,274.7"/>
	<path class="st6" d="M314.5,235.3c0,0-4.7-1-5.5-2.3c-0.8-1.3-3-3.7-3.5-2c-0.5,1.7,0.3,6.8,8.3,9.9"/>
	<path class="st6" d="M378,210.2c1.2-6.2-0.9-11.9-5.1-13.1c-4.5-1.3-9.7,3.1-11.6,9.9c0,0.1-0.1,0.2-0.1,0.3
		c-0.6,0.4-2.5,1.8-2.2,2.6c0.2,0.6,1,0.9,1.6,1c-0.3,5.1,1.8,9.5,5.4,10.5c3.4,0.9,7.1-1.3,9.6-5.2c0.4,0.3,1,0.6,1.6,0.6
		c1.6,0,2.8-1.5,2.8-3.4C380,211.9,379.1,210.6,378,210.2z"/>
	<path class="st10" d="M347.8,138.2c-0.6-5.8-5.8-10-11.6-9.4c0,0,0,0,0,0l-49,5.2c-5.8,0.6-10,5.8-9.4,11.6v0l3.1,29
		c0.6,5.8,5.8,10,11.6,9.4c0,0,0,0,0,0l49-5.2c1.2-0.1,2.3-0.4,3.3-0.9l6.6,8.4l-2.3-12.1c1.4-2.1,2.1-4.6,1.8-7.1L347.8,138.2z"/>
	
		<rect x="292.5" y="144.9" transform="matrix(0.9945 -0.105 0.105 0.9945 -14.1158 32.0959)" class="st5" width="10.2" height="10.2"/>
	
		<rect x="308.9" y="143.2" transform="matrix(0.9945 -0.1051 0.1051 0.9945 -13.8467 33.8188)" class="st5" width="10.2" height="10.2"/>
	
		<rect x="325.3" y="141.5" transform="matrix(0.9945 -0.105 0.105 0.9945 -13.5712 35.5233)" class="st5" width="10.2" height="10.2"/>
	
		<rect x="293" y="161.2" transform="matrix(0.9945 -0.105 0.105 0.9945 -15.8496 32.2697)" class="st5" width="10.8" height="10.8"/>
	
		<rect x="310.4" y="159.4" transform="matrix(0.9945 -0.105 0.105 0.9945 -15.5618 34.0817)" class="st5" width="10.8" height="10.8"/>
	<rect x="327" y="156.8" transform="matrix(0.9945 -0.105 0.105 0.9945 -15.1678 35.777)" class="st5" width="10.2" height="10.2"/>
	
		<rect x="176.2" y="208.4" transform="matrix(0.9997 -2.390325e-02 2.390325e-02 0.9997 -5.1005 4.3414)" class="st2" width="5.7" height="14.2"/>
	
		<rect x="188.8" y="195.6" transform="matrix(0.9997 -2.390325e-02 2.390325e-02 0.9997 -4.9405 4.6409)" class="st3" width="5.7" height="26.7"/>
	
		<rect x="201.6" y="198.1" transform="matrix(0.9997 -2.385385e-02 2.385385e-02 0.9997 -4.9524 4.9366)" class="st2" width="5.7" height="23.9"/>
	
		<rect x="214.2" y="184.3" transform="matrix(0.9997 -2.390325e-02 2.390325e-02 0.9997 -4.7902 5.246)" class="st3" width="5.7" height="37.5"/>
	<polygon class="st3" points="223.4,225.5 172.7,226.7 171.6,177.6 172.3,177.5 173.5,225.9 223.4,224.7 	"/>
	<polygon class="st11" points="215.7,179.2 213.1,176.1 216.9,175.6 	"/>
	<path class="st11" d="M178.6,198.5c-0.1,0-0.1-0.1-0.2-0.2c-0.1-0.2,0-0.4,0.1-0.5c0,0,0,0,0,0l36.1-20.9c0.2-0.1,0.4,0,0.5,0.1
		c0.1,0.2,0,0.4-0.1,0.5l-36.1,20.9C178.8,198.5,178.7,198.5,178.6,198.5"/>
	<path class="st10" d="M172,103.4h98.3c0.4,0,0.6-0.3,0.6-0.6s-0.3-0.6-0.6-0.6H172c-0.4,0-0.6,0.3-0.6,0.6S171.7,103.4,172,103.4"
		/>
	<path class="st10" d="M172,111.5h98.3c0.4,0,0.6-0.3,0.6-0.6c0-0.4-0.3-0.6-0.6-0.6H172c-0.4,0-0.6,0.3-0.6,0.6
		C171.4,111.2,171.7,111.5,172,111.5"/>
	<path class="st10" d="M172,119.6h98.3c0.4,0,0.6-0.3,0.6-0.6c0-0.4-0.3-0.6-0.6-0.6H172c-0.4,0-0.6,0.3-0.6,0.6
		C171.4,119.3,171.7,119.6,172,119.6"/>
	<path class="st10" d="M172,127.6h98.3c0.4,0,0.6-0.3,0.6-0.7c0-0.3-0.3-0.6-0.6-0.6H172c-0.4,0-0.7,0.3-0.7,0.6
		C171.3,127.3,171.6,127.6,172,127.6C172,127.6,172,127.6,172,127.6"/>
	<path class="st10" d="M172,135.5h98.3c0.4,0,0.6-0.3,0.6-0.6c0-0.4-0.3-0.6-0.6-0.6H172c-0.4,0-0.6,0.3-0.6,0.6
		C171.4,135.2,171.7,135.5,172,135.5"/>
	<path class="st10" d="M172,143.5h55.7c0.4,0,0.6-0.3,0.6-0.6s-0.3-0.6-0.6-0.6H172c-0.4,0-0.6,0.3-0.6,0.6S171.7,143.5,172,143.5"
		/>
	<path class="st10" d="M172,151.2h55.7c0.4,0,0.6-0.3,0.6-0.6c0-0.4-0.3-0.6-0.6-0.6H172c-0.4,0-0.6,0.3-0.6,0.6
		C171.4,150.9,171.7,151.2,172,151.2"/>
	<path class="st12" d="M221.4,295.6h-2.7c-0.4,0-0.8-0.3-0.8-0.7v-21.3c0-0.4,0.4-0.7,0.8-0.7h2.7c0.4,0,0.8,0.3,0.8,0.7v21.3
		C222.2,295.3,221.8,295.7,221.4,295.6"/>
	<g>
		<path class="st4" d="M182.2,408.5c-0.5,0-1-0.4-1.1-0.9l-12-57.3c-1.3-6-6.5-10.4-12.5-10.4c-6.1,0-11.3,4.5-12.5,10.6l-10.9,57
			c-0.1,0.6-0.7,1-1.3,0.9c0,0,0,0,0,0c-0.6-0.1-1-0.7-0.9-1.3c0,0,0,0,0,0l10.9-57c1.4-7.2,7.6-12.4,14.7-12.4
			c7,0,13.2,5.1,14.7,12.2l12,57.3c0.1,0.6-0.3,1.2-0.9,1.3c0,0,0,0,0,0C182.3,408.5,182.2,408.5,182.2,408.5"/>
		<path class="st13" d="M191.8,343h-37.5c-16.4,0-28.3-16-31-41.7l-4.9-47.5c-0.2-2.2,1.4-4.1,3.5-4.4c0,0,0,0,0,0
			c2.2-0.2,4.1,1.4,4.4,3.5v0l4.9,47.5c2.2,21.4,11.1,34.6,23.1,34.6h37.5c2.2,0,4,1.8,4,4C195.8,341.2,194,343,191.8,343L191.8,343
			z"/>
	</g>
	<path class="st9" d="M301.8,303.9L301.8,303.9c1.7,0,3.2,1.4,3.2,3.2V407c0,1.7-1.4,3.2-3.2,3.2c-1.7,0-3.2-1.4-3.2-3.2v-99.9
		C298.7,305.3,300.1,303.9,301.8,303.9"/>
	<path class="st14" d="M392.7,133.1c0,0,20.6-15,19.8-24c-0.4,0.8,12.8,18.2,13.6,22.7c0.2-0.1-5.8,21.7-22.6,26
		C403.5,157.3,398.7,141.5,392.7,133.1"/>
	<path class="st5" d="M404.4,132.2l-0.2-0.8c0,0,4.4-1.2,10.4-10.7l0.7,0.4C409.1,130.9,404.6,132.1,404.4,132.2"/>
	<path class="st5" d="M410,139.4l-0.2-0.8l0.1,0.4l-0.1-0.4c0,0,4.4-1.4,10-11.1l0.7,0.4C414.7,138,410.2,139.3,410,139.4"/>
	<path class="st5" d="M400.4,133.8c0.8,0,1.5,0.7,1.5,1.5c0,0.8-0.7,1.5-1.5,1.5c-0.8,0-1.5-0.7-1.5-1.5
		C398.9,134.4,399.6,133.8,400.4,133.8"/>
	<path class="st5" d="M404.3,141.1c0.8,0,1.5,0.7,1.5,1.5c0,0.8-0.7,1.5-1.5,1.5c-0.8,0-1.5-0.7-1.5-1.5
		C402.7,141.8,403.4,141.1,404.3,141.1"/>
	<path class="st15" d="M71.1,178.2c0,0,1.4,19.6,18.8,28.6c-1.3-0.1-2.9,18.2-2.6,19c-0.6-1-8.6,2.5-22.7-19.2
		C64.6,207.4,65.1,188.4,71.1,178.2"/>
	<path class="st5" d="M70.5,192.5c0.6,1.3,0.9,2.7,1,4.1c0.1,1,1.7,1,1.6,0c-0.1-1.7-0.5-3.3-1.2-4.9
		C71.4,190.7,70.1,191.5,70.5,192.5L70.5,192.5z"/>
	<path class="st5" d="M69.8,196.5c1.3-0.6,2.4-1.5,3.3-2.7c0.5-0.7-0.7-1.4-1.2-0.7c-0.7,1-1.7,1.7-2.8,2.2
		C68.2,195.6,69,196.8,69.8,196.5z"/>
	<path class="st5" d="M71.9,201.7c-1.9,0.3-3.7,1.3-5,2.7c-0.7,0.8,0.4,1.9,1.1,1.1c1.1-1.2,2.7-2.1,4.3-2.3
		C73.3,203.1,72.9,201.6,71.9,201.7L71.9,201.7z"/>
	<path class="st5" d="M67.2,201.9c0.9,1.4,1.5,2.9,1.8,4.5c0.2,1,1.8,0.6,1.5-0.4c-0.4-1.7-1.1-3.3-2-4.8
		C68.1,200.2,66.7,201,67.2,201.9"/>
	<path class="st5" d="M84,209.3c-4.7-1.6-10.5-10.5-10.7-10.9l0.5-0.4c0.1,0.1,6,9,10.4,10.6L84,209.3z"/>
	<path class="st5" d="M82.4,218c-4.7-1.6-10.5-10.5-10.7-10.9l0.5-0.4c0.1,0.1,6,9,10.4,10.6L82.4,218z"/>
	<path class="st2" d="M74.7,129c0,0,10.6-15.9,29.3-13.2c0.2,0.5,0.3,14.1,0.8,15.1c-0.3-0.9-18.2,3-25.1,11.2
		C79.2,141.5,75,133.4,74.7,129"/>
	<path class="st5" d="M79.4,130l-0.5-0.4c0.1-0.1,7.5-9.7,18.5-9.4l0,0.6C86.7,120.5,79.5,129.9,79.4,130"/>
	<path class="st5" d="M81.9,133.4l-0.5-0.4c0.1-0.1,6.6-7.8,15.9-8.2l0,0.6C88.4,125.8,82,133.3,81.9,133.4"/>
	<path class="st15" d="M121,71.1c-1.7,0-3.1-1.5-3.1-3.2c0-1.8,1.4-3.2,3.1-3.2c1.7,0,3.1,1.5,3.1,3.2
		C124.1,69.7,122.7,71.1,121,71.1 M121,65.6c-1.2-0.1-2.3,0.9-2.3,2.1s0.9,2.3,2.1,2.3c1.2,0.1,2.3-0.9,2.3-2.1c0,0,0-0.1,0-0.1
		C123.2,66.7,122.2,65.7,121,65.6L121,65.6z"/>
	<path class="st2" d="M133.8,53.5v-2.2c0-0.3-0.2-0.5-0.5-0.5c-0.3,0-0.5,0.2-0.5,0.5c0,0,0,0,0,0v2.2c0,0.3,0.2,0.5,0.5,0.5
		S133.8,53.8,133.8,53.5C133.8,53.5,133.8,53.5,133.8,53.5 M133.8,57.4v-2.2c0-0.3-0.2-0.5-0.5-0.5c-0.3,0-0.5,0.2-0.5,0.5
		c0,0,0,0,0,0v2.2c0,0.3,0.2,0.5,0.5,0.5S133.8,57.7,133.8,57.4C133.8,57.4,133.8,57.4,133.8,57.4L133.8,57.4z M136.8,54.3
		c0-0.3-0.2-0.5-0.5-0.5h-1.9c-0.3,0-0.5,0.3-0.5,0.5c0,0.3,0.2,0.5,0.5,0.5h1.9C136.6,54.8,136.8,54.6,136.8,54.3L136.8,54.3z
		 M132.7,54.3c0-0.3-0.2-0.5-0.5-0.5h-1.9c-0.3,0-0.5,0.3-0.5,0.5c0,0.3,0.2,0.5,0.5,0.5h1.9C132.5,54.8,132.8,54.6,132.7,54.3
		L132.7,54.3z"/>
	<path class="st14" d="M453.4,107.7c-1.5,0.9-3.5,0.4-4.4-1.2c-0.9-1.5-0.4-3.5,1.2-4.4c1.5-0.9,3.5-0.4,4.4,1.2
		C455.4,104.8,454.9,106.8,453.4,107.7"/>
	<path class="st3" d="M437.1,104c-1.5,0.9-3.5,0.4-4.4-1.2c-0.9-1.5-0.4-3.5,1.2-4.4c1.5-0.9,3.5-0.4,4.4,1.2
		C439.2,101.2,438.6,103.2,437.1,104 M434.4,99.4c-1.1,0.6-1.4,2-0.8,3c0.6,1.1,2,1.4,3,0.8c1.1-0.6,1.4-2,0.8-3
		C436.8,99.1,435.5,98.8,434.4,99.4"/>
	<path class="st10" d="M439.9,83.1c-0.2,0.1-0.5,0.1-0.7-0.2v0l-1.1-1.9c-0.1-0.2-0.1-0.5,0.2-0.7c0.2-0.1,0.5-0.1,0.7,0.2l1.1,1.9
		C440.2,82.7,440.2,83,439.9,83.1C439.9,83.1,439.9,83.1,439.9,83.1"/>
	<path class="st10" d="M441.9,86.5c-0.2,0.1-0.5,0.1-0.7-0.2v0l-1.1-1.9c-0.1-0.2-0.1-0.5,0.2-0.7c0.2-0.1,0.5-0.1,0.7,0.2l1.1,1.9
		C442.2,86,442.1,86.3,441.9,86.5C441.9,86.5,441.9,86.5,441.9,86.5"/>
	<path class="st10" d="M443,82.3l-1.7,1c-0.2,0.1-0.5,0-0.7-0.2c-0.1-0.2,0-0.5,0.2-0.7l1.7-1c0.2-0.1,0.5-0.1,0.7,0.2
		C443.4,81.8,443.3,82.1,443,82.3C443,82.3,443,82.3,443,82.3"/>
	<path class="st10" d="M439.4,84.4l-1.7,1c-0.2,0.1-0.5,0.1-0.7-0.2c-0.1-0.2-0.1-0.5,0.2-0.7c0,0,0,0,0,0l1.7-1
		c0.2-0.1,0.5-0.1,0.7,0.2C439.7,83.9,439.6,84.2,439.4,84.4C439.4,84.4,439.4,84.4,439.4,84.4"/>
	<path class="st3" d="M318,94.6l-14.9-3.8c-1.5-0.4-3,0.7-3.4,2.3l-4.2,16.8c-0.4,1.7,0.4,3.3,1.9,3.7l14.9,3.8
		c1.5,0.4,3-0.7,3.4-2.3l4.2-16.8C320.3,96.6,319.5,95,318,94.6 M297.2,106.4l1.1-0.5L297.2,106.4L297.2,106.4z M318.1,100.3
		C318,100.3,318.1,100.3,318.1,100.3l-8.6,6.4l-3.6-5.2c-0.1-0.2-0.3-0.2-0.5-0.1l-7.3,3.9l2.8-11.2c0.4-1.4,1.4-2.1,2.7-1.8
		l13.7,3.4c1.2,0.3,1.8,0.8,1.3,2.5L318.1,100.3z"/>
	<path class="st3" d="M303,95c1-0.3,2,0.3,2.3,1.3c0.3,1-0.3,2-1.3,2.3c-1,0.3-2-0.3-2.3-1.3C301.4,96.3,302,95.2,303,95"/>
	<path class="st16" d="M265.4,402.1c7.1,0,12.8,0.5,12.8,1.2s-5.7,1.2-12.8,1.2c-7.1,0-12.8-0.5-12.8-1.2S258.4,402.1,265.4,402.1"
		/>
	<path class="st2" d="M274.6,383.8L274.6,383.8c0,0.5,0.4,0.9,0.9,0.9c1,0.2,1.9,0.6,2.6,1.2c1.8,1.8,1.8,4.7,0.1,6.6
		c0,0-0.1,0.1-0.1,0.1c-0.7,0.6-1.6,1.1-2.6,1.2c-0.5,0-0.9,0.4-0.9,0.9c0,0.6,0.7,1.1,1.5,1c3.7-0.6,5.8-3.2,5.8-6.4
		c0-3.2-2.1-5.8-5.8-6.5C275.4,382.7,274.6,383.2,274.6,383.8"/>
	<path class="st17" d="M276.9,381.4c0-1.1-5.3-1.9-11.9-1.9c-6.6,0-11.9,0.9-11.9,1.9v0L276.9,381.4
		C276.9,381.4,276.9,381.4,276.9,381.4"/>
	<path class="st17" d="M265,383.3c6.6,0,11.9-0.9,11.9-1.9h-23.8C253.1,382.5,258.5,383.3,265,383.3"/>
	<path class="st4" d="M273.7,370.4l0,0.5l0,0.6l-1.6,20.1c0.4,0.4,0.9,0.7,1.4,0.8c0.8,0.2,1.7-0.1,2.1-0.5l1.6-20l0.1-1.1
		C277.1,371.4,273.6,371.1,273.7,370.4"/>
	<path class="st5" d="M273.7,370.4l-0.1,1c-0.1,0.7,3.3,1,3.5,0.3c0,0,0,0,0,0l0.1-1C277.1,371.4,273.6,371.1,273.7,370.4"/>
	<path class="st8" d="M274.1,366.1l-0.4,4.3c0,0.3,0.6,0.5,1.3,0.7c1,0.2,2.1,0,2.2-0.4c0,0,0,0,0,0l0.4-4.3
		c0.1-0.9-1.7-1.2-2.7-0.9C274.4,365.5,274.1,365.7,274.1,366.1"/>
	<path class="st14" d="M260.5,376.2l0,0.6l-0.1,0.7l-2,24.7c0.4,0.5,1.1,0.9,1.8,1c1,0.2,2.1-0.1,2.6-0.6l2-24.7l0.1-1.3
		C264.7,377.4,260.4,377,260.5,376.2"/>
	<path class="st18" d="M260.3,378.7c-0.1,0.9,4.2,1.2,4.3,0.3l0.1-1.3c-0.1,0.9-4.4,0.5-4.3-0.3L260.3,378.7z"/>
	<path class="st8" d="M261,370.8l-0.4,5.3c0,0.4,0.7,0.7,1.6,0.8c1.2,0.2,2.6,0,2.7-0.5c0,0,0,0,0,0l0.4-5.4
		c0.1-1.1-2.1-1.5-3.4-1.2C261.4,370.1,261,370.4,261,370.8"/>
	<path class="st4" d="M260.8,369l0.1,0.6l0.2,0.8l5.7,27.7c0.7,0.5,1.5,0.6,2.2,0.5c1.2-0.1,2.3-0.8,2.6-1.5l-5.7-27.7l-0.3-1.5
		C265.8,368.9,261,369.9,260.8,369"/>
	<path class="st11" d="M261.4,371.7c0.2,1,5-0.1,4.8-1l-0.3-1.4c0.2,1-4.7,2-4.8,1L261.4,371.7z"/>
	<path class="st5" d="M260.8,369l0.3,1.4c0.2,1,4.8,0,4.9-0.9c0,0,0,0,0-0.1l-0.3-1.4C265.8,368.9,261,369.9,260.8,369"/>
	<path class="st8" d="M259.6,363l1.2,6c0.1,0.4,1,0.5,2,0.4c1.4-0.2,2.9-0.8,2.8-1.4c0,0,0,0,0,0l-1.2-6c-0.3-1.2-2.7-1-4.1-0.2
		C259.8,362,259.5,362.5,259.6,363"/>
	<path class="st15" d="M267.6,374.4l0,0.5l0,0.6l1.8,21.7c0.5,0.4,1.1,0.6,1.7,0.6c0.9,0,1.8-0.4,2.1-0.9l-1.8-21.7l-0.1-1.2
		C271.4,374.8,267.6,375.2,267.6,374.4"/>
	<path class="st5" d="M267.7,376.3l0.1,1.1c0,0.3,0.7,0.5,1.5,0.5c1.1,0,2.3-0.4,2.3-0.8l-0.1-0.8l0-0.3c0,0.4-1.2,0.8-2.3,0.8
		C268.5,376.8,267.8,376.6,267.7,376.3L267.7,376.3C267.7,376.3,267.7,376.3,267.7,376.3"/>
	<path class="st19" d="M267.8,376.6c0,0.8,3.8,0.4,3.8-0.3l-0.1-1.1c0,0.8-3.8,1.1-3.8,0.3L267.8,376.6z"/>
	<path class="st5" d="M267.6,374.4l0.1,1.1c0,0.7,3.7,0.4,3.8-0.3c0,0,0,0,0,0l-0.1-1.1C271.4,374.8,267.6,375.2,267.6,374.4"/>
	<path class="st8" d="M267.2,369.7l0.4,4.7c0,0.3,0.7,0.5,1.5,0.5c1.1,0,2.3-0.4,2.3-0.8c0,0,0,0,0,0l-0.4-4.7c-0.1-0.9-2-1-3.1-0.5
		C267.5,369,267.2,369.3,267.2,369.7"/>
	<path class="st2" d="M276.9,381.4c0,1.1-5.4,1.9-11.9,1.9c-6.6,0-11.9-0.9-11.9-1.9v20.7c0,0.8,0.6,1.4,1.4,1.4h21
		c0.8,0,1.4-0.6,1.4-1.4L276.9,381.4L276.9,381.4z"/>
	<path class="st20" d="M223.3,407l62.2,3.2l0.6-7.6l-61.9-6.5L223.3,407z M229.8,402.1c-0.1,1-1,1.8-2,1.7s-1.8-1-1.7-2s1-1.8,2-1.7
		h0C229.1,400.2,229.9,401.1,229.8,402.1"/>
	<g>
		<defs>
			<path id="SVGID_47_" d="M227.8,403.8c-1-0.1-1.8-1-1.7-2c0.1-1,1-1.8,2-1.7h0c1,0.1,1.8,1,1.7,2c-0.1,1-0.9,1.7-1.8,1.7
				C227.9,403.8,227.8,403.8,227.8,403.8 M223.3,407l62.2,3.2l0.6-7.6l-61.9-6.5L223.3,407z"/>
		</defs>
		<use xlink:href="#SVGID_47_"  style="overflow:visible;fill:#FFAE33;"/>
		<clipPath id="SVGID_1_">
			<use xlink:href="#SVGID_47_"  style="overflow:visible;"/>
		</clipPath>
		
			<rect x="229.9" y="396.7" transform="matrix(0.1021 -0.9948 0.9948 0.1021 -186.1217 588.3133)" class="st21" width="5.8" height="1.1"/>
		
			<rect x="232.9" y="397" transform="matrix(0.1022 -0.9948 0.9948 0.1022 -183.777 591.4954)" class="st21" width="5.8" height="1.1"/>
		
			<rect x="235.9" y="397.3" transform="matrix(0.1022 -0.9948 0.9948 0.1022 -181.402 594.7464)" class="st21" width="5.8" height="1.1"/>
		
			<rect x="238.9" y="397.6" transform="matrix(0.1022 -0.9948 0.9948 0.1022 -179.0441 597.9598)" class="st21" width="5.8" height="1.1"/>
		
			<rect x="241.8" y="397.9" transform="matrix(0.1021 -0.9948 0.9948 0.1021 -176.6447 601.264)" class="st21" width="5.8" height="1.1"/>
		
			<rect x="244.8" y="398.2" transform="matrix(0.1022 -0.9948 0.9948 0.1022 -174.3097 604.4291)" class="st21" width="5.8" height="1.1"/>
		
			<rect x="247.8" y="398.5" transform="matrix(0.1022 -0.9948 0.9948 0.1022 -171.9408 607.666)" class="st21" width="5.8" height="1.1"/>
		
			<rect x="250.8" y="398.8" transform="matrix(0.1022 -0.9948 0.9948 0.1022 -169.5738 610.9006)" class="st21" width="5.8" height="1.1"/>
		
			<rect x="253.7" y="399.2" transform="matrix(0.1022 -0.9948 0.9948 0.1022 -167.2081 614.1308)" class="st21" width="5.8" height="1.1"/>
		
			<rect x="256.7" y="399.5" transform="matrix(0.1023 -0.9948 0.9948 0.1023 -164.8506 617.3468)" class="st21" width="5.8" height="1.1"/>
		
			<rect x="259.7" y="399.8" transform="matrix(0.1021 -0.9948 0.9948 0.1021 -162.4448 620.6563)" class="st21" width="5.8" height="1.1"/>
		
			<rect x="262.7" y="400.1" transform="matrix(0.1023 -0.9948 0.9948 0.1023 -160.1147 623.8177)" class="st21" width="5.8" height="1.1"/>
		
			<rect x="265.6" y="400.4" transform="matrix(0.1021 -0.9948 0.9948 0.1021 -157.7142 627.1155)" class="st21" width="5.8" height="1.1"/>
		
			<rect x="268.6" y="400.7" transform="matrix(0.1022 -0.9948 0.9948 0.1022 -155.3692 630.308)" class="st21" width="5.8" height="1.1"/>
		
			<rect x="271.6" y="401" transform="matrix(0.1023 -0.9948 0.9948 0.1023 -153.0129 633.522)" class="st21" width="5.8" height="1.1"/>
		
			<rect x="274.6" y="401.3" transform="matrix(0.1022 -0.9948 0.9948 0.1022 -150.6353 636.7751)" class="st21" width="5.8" height="1.1"/>
		
			<rect x="277.5" y="401.6" transform="matrix(0.1022 -0.9948 0.9948 0.1022 -148.2667 640.0119)" class="st21" width="5.8" height="1.1"/>
		
			<rect x="280.5" y="401.9" transform="matrix(0.1022 -0.9948 0.9948 0.1022 -145.8992 643.2466)" class="st21" width="5.8" height="1.1"/>
	</g>
	<path class="st5" d="M70.3,422.5c-2,0-3.6-1.7-3.6-3.7c0-2.1,1.6-3.7,3.6-3.7c2,0,3.6,1.7,3.6,3.7
		C73.9,420.9,72.3,422.5,70.3,422.5"/>
	<path class="st5" d="M84.5,402.9c-0.3,0-0.6-0.3-0.6-0.6v-2.6c0-0.3,0.2-0.6,0.6-0.6c0.3,0,0.6,0.3,0.6,0.6v2.6
		C85.1,402.6,84.8,402.9,84.5,402.9"/>
	<path class="st5" d="M84.5,407.4c-0.3,0-0.6-0.3-0.6-0.6v-2.6c0-0.3,0.2-0.6,0.6-0.6c0.3,0,0.6,0.3,0.6,0.6v2.6
		C85.1,407.1,84.8,407.4,84.5,407.4"/>
	<path class="st5" d="M88,403.8h-2.2c-0.3,0-0.6-0.3-0.6-0.6v0c0-0.3,0.2-0.6,0.6-0.6H88c0.3,0,0.6,0.3,0.6,0.6
		C88.5,403.6,88.3,403.8,88,403.8"/>
	<path class="st5" d="M83.3,403.8h-2.2c-0.3,0-0.6-0.3-0.6-0.6c0-0.3,0.2-0.6,0.6-0.6h2.2c0.3,0,0.6,0.3,0.6,0.6
		C83.8,403.6,83.6,403.8,83.3,403.8"/>
	<g>
		<path class="st4" d="M180.2,376.4c-0.9,0.5-1.5,1.4-1.7,2.5c-0.8,4.8-0.9,18.9,1.4,22.5c2.7,4.4,24.4,3.1,26.4,0.9
			c1.9-2.2-15.2-6.3-17.3-8.4c-2.1-2.1-0.5-9.2-0.7-11.7C188.2,379.9,186.4,372.8,180.2,376.4"/>
		<path class="st4" d="M224.3,358c-0.4,0.8-0.4,1.7,0,2.5c1.8,3.6,7.5,14.5,10.9,15.9c4.2,1.6,20.7-11.3,21-13.8
			c0.3-2.4-14.3,3.2-16.9,2.8c-2.6-0.4-4.9-5.9-6.2-7.5C231.9,356.5,227,352.6,224.3,358"/>
		<path class="st4" d="M139.3,305.4c-2.6-0.8-5.2,0.7-6,3.4c-0.2,0.6-0.2,1.2-0.2,1.8c0.8,10.5,5.9,28.1,31.9,26.6
			c16.5-0.8,29.8-4.4,37.3,4.2c7.5,8.6,18.2,28.1,28.2,31.6c0.2,0.1,6.5-7.4,8.2-8s-7.8-11.9-11.2-28.5c-3.3-11.3-17.8-30-63.8-27.8
			C155.3,309.1,147.1,307.9,139.3,305.4"/>
		<path class="st22" d="M200.6,325.8c0,0,16.6-2.6,10.3,26.3c0.3,0.4-6-7.4-6-7.4S208.2,327,200.6,325.8"/>
		<path class="st22" d="M133,307.9c0,0,0.4,9.1,1.2,10.1c0.9,1,15.6-4.4,26.6-5.6C162.4,311.4,143.6,304.8,133,307.9"/>
		<path class="st4" d="M176.2,387.5c0,0,5-70,27.8-61c11.7,5.7,4.3,32-15.4,65.5C188.3,392.7,176.7,388.8,176.2,387.5"/>
		<path class="st22" d="M163.1,310.3c0,0,12.1,0.1,24.4,2.3c12.4,2.2,20,3.1,19.5,2.9c-0.5-0.2-21.4-9.5-46-6.5
			C151.6,309.4,163.1,310.3,163.1,310.3"/>
		<path class="st6" d="M185.5,278.8c0,0,12.9,11.9,26.3,11.8c3.8,0.5,8.3,10.7-0.6,9.3c-8.9-1.3-43.5-14.1-44.5-21.1
			C165.6,271.9,181.5,271.9,185.5,278.8"/>
		<path class="st12" d="M171.4,281c0,0,26.6,6.1,31.8,10.7c4,3.5,3.9,6.9,3.7,8c-0.2,1-30.3-17.1-36.5-17.8
			C164.3,281.2,171.4,281,171.4,281"/>
		<path class="st23" d="M169.9,255.5c1.5-0.5,3.1,0.1,3.9,1.6c3.2,5.6,13,22.8,13.7,23.3c0.8,0.6-14-1.1-14.7,2.2
			C172.1,285.5,161.5,258.6,169.9,255.5"/>
		<path class="st5" d="M176.3,278.6l0.7,0.7c0.1,0.1,0.1,0.3,0,0.5c-0.1,0.1-0.3,0.1-0.4,0c0,0,0,0,0,0l-0.7-0.7
			c-0.1-0.1-0.1-0.3,0-0.5C176,278.5,176.2,278.5,176.3,278.6 M175.6,270.8l0.7,0.7c0.1,0.1,0.3,0.1,0.4,0c0.1-0.1,0.1-0.3,0-0.5
			c0,0,0,0,0,0l-0.7-0.7c-0.1-0.1-0.3-0.1-0.4,0C175.5,270.5,175.5,270.7,175.6,270.8 M177,268.1l-0.7-0.7c-0.1-0.1-0.3-0.1-0.4,0
			s-0.1,0.3,0,0.5l0.7,0.7c0.1,0.1,0.3,0.1,0.4,0C177.1,268.4,177.1,268.2,177,268.1L177,268.1z M175.6,273.7l0.7,0.7
			c0.1,0.1,0.3,0.1,0.4,0c0.1-0.1,0.1-0.3,0-0.5l-0.7-0.7c-0.1-0.1-0.3-0.1-0.4,0C175.5,273.4,175.5,273.6,175.6,273.7 M178.2,265.7
			c-0.1,0.1-0.1,0.3,0,0.5c0.1,0.1,0.3,0.1,0.4,0l0.2-0.3c-0.1-0.2-0.2-0.4-0.3-0.6L178.2,265.7z M179.3,270.3
			c-0.1-0.1-0.3-0.1-0.4,0l-0.7,0.7c-0.1,0.1-0.1,0.3,0,0.5c0.1,0.1,0.3,0.1,0.4,0l0.7-0.7C179.4,270.7,179.4,270.5,179.3,270.3
			 M176.3,277.3c0.1,0.1,0.3,0.1,0.4,0c0.1-0.1,0.1-0.3,0-0.5l-0.7-0.7c-0.1-0.1-0.3-0.1-0.4,0c-0.1,0.1-0.1,0.3,0,0.5L176.3,277.3z
			 M179.3,273.3L179.3,273.3c-0.1-0.1-0.3-0.1-0.4,0l-0.7,0.7c-0.1,0.1-0.1,0.3,0,0.5c0.1,0.1,0.3,0.1,0.4,0l0.7-0.7
			C179.4,273.6,179.4,273.4,179.3,273.3 M179.3,276.2L179.3,276.2c-0.1-0.1-0.3-0.1-0.4,0l-0.7,0.7c-0.1,0.1-0.1,0.3,0,0.5
			c0.1,0.1,0.3,0.1,0.4,0l0.7-0.7C179.4,276.5,179.4,276.3,179.3,276.2 M176.3,263.2c0.1,0.1,0.3,0.1,0.4,0c0.1-0.1,0.1-0.3,0-0.5
			l-0.7-0.7c-0.1-0.1-0.3-0.1-0.4,0c-0.1,0.1-0.1,0.3,0,0.5L176.3,263.2z M178.6,278.6l-0.7,0.7c-0.1,0.1-0.1,0.3,0,0.5
			c0.1,0.1,0.3,0.1,0.4,0l0.7-0.7c0.1-0.1,0.1-0.3,0-0.5C178.9,278.5,178.8,278.5,178.6,278.6L178.6,278.6z M185.4,278.6
			c-0.1-0.1-0.3-0.1-0.4,0c-0.1,0.1-0.1,0.3,0,0.5l0.7,0.7c0.1,0.1,0.3,0.1,0.4,0c0.1-0.1,0.1-0.3,0-0.5c0,0,0,0,0,0L185.4,278.6z
			 M184.7,276.2c-0.1,0.1-0.1,0.3,0,0.5l0.7,0.7c0.1,0.1,0.2,0.1,0.3,0.1c-0.2-0.4-0.5-0.9-0.8-1.3
			C184.8,276.1,184.7,276.1,184.7,276.2L184.7,276.2z M175.6,265.5l0.7,0.7c0.1,0.1,0.3,0.1,0.4,0c0.1-0.1,0.1-0.3,0-0.5L176,265
			c-0.1-0.1-0.3-0.1-0.4,0C175.5,265.1,175.5,265.3,175.6,265.5 M178.4,268.6l0.7-0.7c0.1-0.1,0.1-0.3,0-0.5c-0.1-0.1-0.3-0.1-0.4,0
			l-0.7,0.7c-0.1,0.1-0.1,0.3,0,0.5C178.1,268.7,178.3,268.7,178.4,268.6L178.4,268.6z M187,279.7
			C187.1,279.8,187.1,279.8,187,279.7c0,0,0-0.1-0.1-0.2C186.9,279.6,187,279.7,187,279.7L187,279.7z M171.8,273.3
			c-0.1-0.1-0.3-0.1-0.4,0l-0.7,0.7c-0.1,0.1-0.1,0.3,0,0.5c0.1,0.1,0.3,0.1,0.4,0l0.7-0.7C171.9,273.6,171.9,273.4,171.8,273.3
			L171.8,273.3z M170.9,268.6l0.7-0.7c0.1-0.1,0.1-0.3,0-0.5c-0.1-0.1-0.3-0.1-0.4,0l-0.7,0.7c-0.1,0.1-0.1,0.3,0,0.5
			C170.6,268.7,170.8,268.7,170.9,268.6 M171.8,262.1c-0.1-0.1-0.3-0.1-0.4,0l-0.7,0.7c-0.1,0.1-0.1,0.3,0,0.5
			c0.1,0.1,0.3,0.1,0.4,0l0.7-0.7C171.9,262.4,171.9,262.2,171.8,262.1L171.8,262.1z M170.9,257.4l0.7-0.7c0.1-0.1,0.1-0.3,0-0.5
			c-0.1-0.1-0.3-0.1-0.4,0l-0.7,0.7c-0.1,0.1-0.1,0.3,0,0.5C170.6,257.5,170.8,257.5,170.9,257.4L170.9,257.4z M171.8,270.3
			c-0.1-0.1-0.3-0.1-0.4,0l-0.7,0.7c-0.1,0.1-0.1,0.3,0,0.5c0.1,0.1,0.3,0.1,0.4,0l0.7-0.7C171.9,270.7,171.9,270.5,171.8,270.3
			C171.8,270.3,171.8,270.3,171.8,270.3 M169,257.4c0.1,0.1,0.3,0.1,0.4,0c0.1-0.1,0.1-0.3,0-0.5l-0.7-0.7c0,0,0,0-0.1,0
			c-0.2,0.1-0.3,0.3-0.4,0.4c0,0,0,0.1,0,0.1L169,257.4z M170.9,279.7l0.7-0.7c0.1-0.1,0.1-0.3,0-0.5c-0.1-0.1-0.3-0.1-0.4,0
			l-0.6,0.6C170.6,279.4,170.7,279.6,170.9,279.7C170.8,279.8,170.9,279.8,170.9,279.7 M171.3,259.1l-0.7,0.7
			c-0.1,0.1-0.1,0.3,0,0.5c0.1,0.1,0.3,0.1,0.4,0l0.7-0.7c0.1-0.1,0.1-0.3,0-0.5C171.7,259,171.5,259,171.3,259.1 M171.8,281.5
			c-0.1-0.1-0.1-0.1-0.2-0.1c0.1,0.2,0.2,0.3,0.3,0.5C171.9,281.8,171.9,281.6,171.8,281.5L171.8,281.5z M171.8,265
			c-0.1-0.1-0.3-0.1-0.4,0l-0.7,0.7c-0.1,0.1-0.1,0.3,0,0.5s0.3,0.1,0.4,0l0.7-0.7C171.9,265.3,171.9,265.1,171.8,265L171.8,265z
			 M168.7,260.3c0.1,0.1,0.3,0.1,0.4,0c0.1-0.1,0.1-0.3,0-0.5l-0.7-0.7c-0.1-0.1-0.3-0.1-0.4,0c-0.1,0.1-0.1,0.3,0,0.5L168.7,260.3z
			 M168.1,265.5l0.7,0.7c0.1,0.1,0.3,0.1,0.4,0s0.1-0.3,0-0.5l-0.7-0.7c-0.1-0.1-0.3-0.1-0.4,0C168,265.1,168,265.3,168.1,265.5
			 M171.3,276.2l-0.7,0.7c-0.1,0.1-0.1,0.3,0,0.5c0.1,0.1,0.3,0.1,0.4,0l0.7-0.7c0.1-0.1,0.1-0.3,0-0.5
			C171.7,276.1,171.5,276.1,171.3,276.2z M168.1,262.5l0.7,0.7c0.1,0.1,0.3,0.1,0.4,0c0.1-0.1,0.1-0.3,0-0.5l-0.7-0.7
			c-0.1-0.1-0.3-0.1-0.4,0C168,262.2,168,262.4,168.1,262.5 M169.2,274.4c0.1-0.1,0.1-0.3,0-0.5l-0.7-0.7c0,0,0,0-0.1,0
			c0.1,0.4,0.3,0.9,0.4,1.3C169,274.5,169.1,274.5,169.2,274.4L169.2,274.4z M168.7,271.5c0.1,0.1,0.3,0.1,0.4,0
			c0.1-0.1,0.1-0.3,0-0.4l-0.7-0.7c-0.1-0.1-0.3-0.1-0.4,0c-0.1,0.1-0.1,0.3,0,0.5L168.7,271.5z M169,268.6c0.1,0.1,0.3,0.1,0.4,0
			c0.1-0.1,0.1-0.3,0-0.5l-0.7-0.7c-0.1-0.1-0.3-0.1-0.4,0c-0.1,0.1-0.1,0.3,0,0.5L169,268.6z"/>
		<path class="st23" d="M173.9,257.9c0,0,5.7,20.7,5.4,22.6c-0.2,0-4.7,0-5.6,0.6C172.8,281.7,172.4,258.5,173.9,257.9"/>
		<path class="st4" d="M184.5,220.9c0,0,5.9-0.7,6.6,7.7c0.4,5.3-4.4,13.4-8.2,9.3C179,233.7,178.9,224.3,184.5,220.9"/>
		<path class="st6" d="M176.1,218.7c-4,0-7.4,3.8-8.5,9c-0.3-0.1-0.6-0.2-0.9-0.2c-1.8,0-3.2,1.9-3.2,4.3c0,2.4,1.4,4.3,3.2,4.3
			c0.3,0,0.7-0.1,1-0.2c0.1,0.4,0.2,0.8,0.3,1.1l-8.3,11.6c-1.7,2.4-1.3,5.8,1,7.6c2,1.6,4.8,1.4,6.6-0.3c3.1,1.4,7,2.8,6.8,2.7
			c-0.3-0.1-1-6.5-1.4-10.1l3-4.1c0.1,0,0.3,0,0.4,0c4.9,0,8.9-5.8,8.9-12.9S181,218.7,176.1,218.7z"/>
		<path class="st23" d="M162.6,244.5c0,0,3.3,9.6,10.9,10.9c1.4,0.4,7.7,33.3-5.4,55.6c-0.7,0.7-29.3,5.3-35.9-1.3
			C132.3,309.4,127,250.5,162.6,244.5"/>
		<path class="st5" d="M152.5,248.1c0.2-0.1,0.4-0.2,0.6-0.4l-0.3,0.3C152.7,248.1,152.6,248.1,152.5,248.1 M153.5,261
			c-0.1-0.1-0.3-0.1-0.4,0l-0.7,0.7c-0.1,0.1-0.1,0.3,0,0.5c0.1,0.1,0.3,0.1,0.4,0l0.7-0.7C153.6,261.3,153.6,261.1,153.5,261
			L153.5,261z M153.5,258c-0.1-0.1-0.3-0.1-0.4,0l-0.7,0.7c-0.1,0.1-0.1,0.3,0,0.5c0.1,0.1,0.3,0.1,0.4,0l0.7-0.7
			C153.6,258.4,153.6,258.2,153.5,258L153.5,258z M149.8,258.5l0.7,0.7c0.1,0.1,0.3,0.1,0.4,0c0.1-0.1,0.1-0.3,0-0.5c0,0,0,0,0,0
			l-0.7-0.7c-0.1-0.1-0.3-0.1-0.4,0C149.7,258.2,149.7,258.4,149.8,258.5L149.8,258.5z M150.4,256.3c0.1,0.1,0.3,0.1,0.4,0
			c0.1-0.1,0.1-0.3,0-0.5c0,0,0,0,0,0l-0.7-0.7c-0.1-0.1-0.3-0.1-0.4,0c-0.1,0.1-0.1,0.3,0,0.5L150.4,256.3z M153.5,255.1
			c-0.1-0.1-0.3-0.1-0.4,0l-0.7,0.7c-0.1,0.1-0.1,0.3,0,0.5c0.1,0.1,0.3,0.1,0.4,0l0.7-0.7C153.6,255.4,153.6,255.2,153.5,255.1
			L153.5,255.1z M153.5,249.8c-0.1-0.1-0.3-0.1-0.4,0l-0.7,0.7c-0.1,0.1-0.1,0.3,0,0.5s0.3,0.1,0.4,0l0.7-0.7
			C153.6,250.1,153.6,249.9,153.5,249.8L153.5,249.8z M149.8,283.8l0.7,0.7c0.1,0.1,0.3,0.1,0.4,0c0.1-0.1,0.1-0.3,0-0.5l-0.7-0.7
			c-0.1-0.1-0.3-0.1-0.4,0C149.7,283.5,149.7,283.7,149.8,283.8 M149.8,272.6l0.7,0.7c0.1,0.1,0.3,0.1,0.4,0c0.1-0.1,0.1-0.3,0-0.5
			l-0.7-0.7c-0.1-0.1-0.3-0.1-0.4,0C149.7,272.3,149.7,272.5,149.8,272.6L149.8,272.6z M149.8,280.9l0.7,0.7c0.1,0.1,0.3,0.1,0.4,0
			c0.1-0.1,0.1-0.3,0-0.5l-0.7-0.7c-0.1-0.1-0.3-0.1-0.4,0C149.7,280.5,149.7,280.7,149.8,280.9L149.8,280.9z M149.8,277.9l0.7,0.7
			c0.1,0.1,0.3,0.1,0.4,0c0.1-0.1,0.1-0.3,0-0.5l-0.7-0.7c-0.1-0.1-0.3-0.1-0.4,0C149.7,277.6,149.7,277.8,149.8,277.9L149.8,277.9z
			 M149.8,266.7l0.7,0.7c0.1,0.1,0.3,0.1,0.4,0c0.1-0.1,0.1-0.3,0-0.5c0,0,0,0,0,0l-0.7-0.7c-0.1-0.1-0.3-0.1-0.4,0
			C149.7,266.4,149.7,266.6,149.8,266.7 M149.8,269.7l0.7,0.7c0.1,0.1,0.3,0.1,0.4,0c0.1-0.1,0.1-0.3,0-0.5c0,0,0,0,0,0l-0.7-0.7
			c-0.1-0.1-0.3-0.1-0.4,0C149.7,269.4,149.7,269.6,149.8,269.7L149.8,269.7z M149.8,261.4l0.7,0.7c0.1,0.1,0.3,0.1,0.4,0
			c0.1-0.1,0.1-0.3,0-0.5l-0.7-0.7c-0.1-0.1-0.3-0.1-0.4,0C149.7,261.1,149.7,261.3,149.8,261.4L149.8,261.4z M153.5,302.8
			c-0.1-0.1-0.3-0.1-0.4,0l-0.7,0.7c-0.1,0.1-0.1,0.3,0,0.5c0.1,0.1,0.3,0.1,0.4,0l0.7-0.7C153.6,303.1,153.6,302.9,153.5,302.8
			L153.5,302.8z M153.5,299.8c-0.1-0.1-0.3-0.1-0.4,0l-0.7,0.7c-0.1,0.1-0.1,0.3,0,0.5c0.1,0.1,0.3,0.1,0.4,0l0.7-0.7
			C153.6,300.2,153.6,300,153.5,299.8 M153.5,294.5c-0.1-0.1-0.3-0.1-0.4,0l-0.7,0.7c-0.1,0.1-0.1,0.3,0,0.5c0.1,0.1,0.3,0.1,0.4,0
			l0.7-0.7C153.6,294.9,153.6,294.6,153.5,294.5 M153.5,291.6c-0.1-0.1-0.3-0.1-0.4,0l-0.7,0.7c-0.1,0.1-0.1,0.3,0,0.5
			c0.1,0.1,0.3,0.1,0.4,0l0.7-0.7C153.6,291.9,153.6,291.7,153.5,291.6L153.5,291.6z M152.2,309.3c0.1,0.1,0.3,0.1,0.4,0l0.7-0.7
			c0.1-0.1,0.1-0.3,0-0.5c-0.1-0.1-0.3-0.1-0.4,0l-0.7,0.7C152,308.9,152,309.1,152.2,309.3L152.2,309.3z M153.5,266.3L153.5,266.3
			c-0.1-0.1-0.3-0.1-0.4,0l-0.7,0.7c-0.1,0.1-0.1,0.3,0,0.5c0.1,0.1,0.3,0.1,0.4,0l0.7-0.7C153.6,266.6,153.6,266.4,153.5,266.3
			L153.5,266.3z M153.5,305.7c-0.1-0.1-0.3-0.1-0.4,0l-0.7,0.7c-0.1,0.1-0.1,0.3,0,0.5c0.1,0.1,0.3,0.1,0.4,0l0.7-0.7
			C153.6,306,153.6,305.8,153.5,305.7L153.5,305.7z M153.5,272.1c-0.1-0.1-0.3-0.1-0.4,0l-0.7,0.7c-0.1,0.1-0.1,0.3,0,0.5
			c0.1,0.1,0.3,0.1,0.4,0l0.7-0.7C153.6,272.5,153.6,272.3,153.5,272.1L153.5,272.1z M153.5,288.7c-0.1-0.1-0.3-0.1-0.4,0l-0.7,0.7
			c-0.1,0.1-0.1,0.3,0,0.5c0.1,0.1,0.3,0.1,0.4,0l0.7-0.7C153.6,289,153.6,288.8,153.5,288.7L153.5,288.7z M153.5,269.2
			c-0.1-0.1-0.3-0.1-0.4,0l-0.7,0.7c-0.1,0.1-0.1,0.3,0,0.5c0.1,0.1,0.3,0.1,0.4,0l0.7-0.7C153.6,269.6,153.6,269.3,153.5,269.2
			L153.5,269.2z M153.5,277.5c-0.1-0.1-0.3-0.1-0.4,0l-0.7,0.7c-0.1,0.1-0.1,0.3,0,0.5c0.1,0.1,0.3,0.1,0.4,0l0.7-0.7
			C153.6,277.8,153.6,277.6,153.5,277.5L153.5,277.5z M153.5,283.3L153.5,283.3c-0.1-0.1-0.3-0.1-0.4,0l-0.7,0.7
			c-0.1,0.1-0.1,0.3,0,0.5c0.1,0.1,0.3,0.1,0.4,0l0.7-0.7C153.6,283.7,153.6,283.5,153.5,283.3L153.5,283.3z M153.5,280.4
			c-0.1-0.1-0.3-0.1-0.4,0l-0.7,0.7c-0.1,0.1-0.1,0.3,0,0.5c0.1,0.1,0.3,0.1,0.4,0l0.7-0.7C153.6,280.7,153.6,280.5,153.5,280.4
			L153.5,280.4z M166.4,277.9l0.7,0.7c0.1,0.1,0.3,0.1,0.4,0c0.1-0.1,0.1-0.3,0-0.5l-0.7-0.7c-0.1-0.1-0.3-0.1-0.4,0
			C166.3,277.6,166.3,277.8,166.4,277.9L166.4,277.9z M166.4,266.7l0.7,0.7c0.1,0.1,0.3,0.1,0.4,0c0.1-0.1,0.1-0.3,0-0.5l-0.7-0.7
			c-0.1-0.1-0.3-0.1-0.4,0C166.3,266.4,166.3,266.6,166.4,266.7L166.4,266.7z M166.4,269.7l0.7,0.7c0.1,0.1,0.3,0.1,0.4,0
			c0.1-0.1,0.1-0.3,0-0.5l-0.7-0.7c-0.1-0.1-0.3-0.1-0.4,0C166.3,269.3,166.3,269.6,166.4,269.7z M152.1,298.1
			c0.1,0.1,0.3,0.1,0.4,0l0.7-0.7c0.1-0.1,0.1-0.3,0-0.5c-0.1-0.1-0.3-0.1-0.4,0l-0.7,0.7C152,297.7,152,297.9,152.1,298.1
			L152.1,298.1z M166.4,272.6l0.7,0.7c0.1,0.1,0.3,0.1,0.4,0c0.1-0.1,0.1-0.3,0-0.5c0,0,0,0,0,0l-0.7-0.7c-0.1-0.1-0.3-0.1-0.4,0
			C166.3,272.3,166.3,272.5,166.4,272.6z M167,259.2c0.1,0.1,0.3,0.1,0.4,0c0.1-0.1,0.1-0.3,0-0.5l-0.7-0.7c-0.1-0.1-0.3-0.1-0.4,0
			c-0.1,0.1-0.1,0.3,0,0.5L167,259.2z M166.4,261.4l0.7,0.7c0.1,0.1,0.3,0.1,0.4,0c0.1-0.1,0.1-0.3,0-0.5l-0.7-0.7
			c-0.1-0.1-0.3-0.1-0.4,0C166.3,261.1,166.3,261.3,166.4,261.4L166.4,261.4z M166.4,295l0.7,0.7c0.1,0.1,0.3,0.1,0.4,0
			c0.1-0.1,0.1-0.3,0-0.5l-0.7-0.7c-0.1-0.1-0.3-0.1-0.4,0C166.3,294.6,166.3,294.9,166.4,295z M149.8,289.1l0.7,0.7
			c0.1,0.1,0.3,0.1,0.4,0c0.1-0.1,0.1-0.3,0-0.5c0,0,0,0,0,0l-0.7-0.7c-0.1-0.1-0.3-0.1-0.4,0C149.7,288.8,149.7,289,149.8,289.1
			L149.8,289.1z M166.4,311c-0.1,0.1-0.1,0.3,0,0.4c0.3-0.1,0.5-0.1,0.7-0.2l-0.2-0.2C166.7,310.9,166.5,310.9,166.4,311L166.4,311z
			 M166.4,300.3l0.7,0.7c0.1,0.1,0.3,0.1,0.4,0c0.1-0.1,0.1-0.3,0-0.5l-0.7-0.7c-0.1-0.1-0.3-0.1-0.4,0
			C166.3,300,166.3,300.2,166.4,300.3L166.4,300.3z M166.4,280.9l0.7,0.7c0.1,0.1,0.3,0.1,0.4,0s0.1-0.3,0-0.5l-0.7-0.7
			c-0.1-0.1-0.3-0.1-0.4,0C166.3,280.5,166.3,280.7,166.4,280.9z M166.4,289.1l0.7,0.7c0.1,0.1,0.3,0.1,0.4,0c0.1-0.1,0.1-0.3,0-0.5
			c0,0,0,0,0,0l-0.7-0.7c-0.1-0.1-0.3-0.1-0.4,0C166.3,288.8,166.3,289,166.4,289.1z M166.4,283.8l0.7,0.7c0.1,0.1,0.3,0.1,0.4,0
			c0.1-0.1,0.1-0.3,0-0.5l-0.7-0.7c-0.1-0.1-0.3-0.1-0.4,0C166.3,283.5,166.3,283.7,166.4,283.8L166.4,283.8z M166.4,292.1l0.7,0.7
			c0.1,0.1,0.3,0.1,0.4,0c0.1-0.1,0.1-0.3,0-0.5l-0.7-0.7c-0.1-0.1-0.3-0.1-0.4,0C166.3,291.7,166.3,291.9,166.4,292.1z
			 M149.8,303.2l0.7,0.7c0.1,0.1,0.3,0.1,0.4,0c0.1-0.1,0.1-0.3,0-0.5c0,0,0,0,0,0l-0.7-0.7c-0.1-0.1-0.3-0.1-0.4,0
			C149.7,302.9,149.7,303.1,149.8,303.2L149.8,303.2z M150.7,309.3c0.1,0.1,0.3,0.1,0.4,0c0.1-0.1,0.1-0.3,0-0.5l-0.7-0.7
			c-0.1-0.1-0.3-0.1-0.4,0c-0.1,0.1-0.1,0.3,0,0.5L150.7,309.3z M149.8,306.2l0.7,0.7c0.1,0.1,0.3,0.1,0.4,0c0.1-0.1,0.1-0.3,0-0.5
			l-0.7-0.7c-0.1-0.1-0.3-0.1-0.4,0C149.7,305.8,149.7,306,149.8,306.2L149.8,306.2z M150.4,312.2c0.1,0.1,0.3,0.1,0.4,0
			c0.1-0.1,0.1-0.3,0-0.5l-0.7-0.7c-0.1-0.1-0.3-0.1-0.4,0s-0.1,0.3,0,0.5L150.4,312.2z M149.8,295l0.7,0.7c0.1,0.1,0.3,0.1,0.4,0
			c0.1-0.1,0.1-0.3,0-0.5l-0.7-0.7c-0.1-0.1-0.3-0.1-0.4,0C149.7,294.7,149.7,294.9,149.8,295L149.8,295z M149.8,292.1l0.7,0.7
			c0.1,0.1,0.3,0.1,0.4,0c0.1-0.1,0.1-0.3,0-0.5c0,0,0,0,0,0l-0.7-0.7c-0.1-0.1-0.3-0.1-0.4,0C149.7,291.7,149.7,291.9,149.8,292.1
			L149.8,292.1z M149.8,300.3l0.7,0.7c0.1,0.1,0.3,0.1,0.4,0c0.1-0.1,0.1-0.3,0-0.5l-0.7-0.7c-0.1-0.1-0.3-0.1-0.4,0
			C149.7,300,149.7,300.2,149.8,300.3L149.8,300.3z M151.1,252.9l-0.7-0.7c-0.1-0.1-0.3-0.1-0.4,0c-0.1,0.1-0.1,0.3,0,0.5l0.7,0.7
			c0.1,0.1,0.3,0.1,0.4,0C151.2,253.2,151.2,253,151.1,252.9L151.1,252.9z M149.8,250.2l0.7,0.7c0.1,0.1,0.3,0.1,0.4,0
			c0.1-0.1,0.1-0.3,0-0.5l-0.7-0.7c-0.1-0.1-0.1-0.1-0.2-0.1c-0.1,0.1-0.2,0.2-0.3,0.2C149.7,250,149.7,250.2,149.8,250.2
			L149.8,250.2z M151.1,297.6l-0.7-0.7c-0.1-0.1-0.3-0.1-0.4,0c-0.1,0.1-0.1,0.3,0,0.5l0.7,0.7c0.1,0.1,0.3,0.1,0.4,0
			C151.2,297.9,151.2,297.7,151.1,297.6L151.1,297.6z M151.1,264l-0.7-0.7c-0.1-0.1-0.3-0.1-0.4,0c-0.1,0.1-0.1,0.3,0,0.5l0.7,0.7
			c0.1,0.1,0.3,0.1,0.4,0C151.2,264.4,151.2,264.2,151.1,264L151.1,264z M151.1,275.2l-0.7-0.7c-0.1-0.1-0.3-0.1-0.4,0
			c-0.1,0.1-0.1,0.3,0,0.5l0.7,0.7c0.1,0.1,0.3,0.1,0.4,0C151.2,275.6,151.2,275.4,151.1,275.2L151.1,275.2z M151.1,286.4l-0.7-0.7
			c-0.1-0.1-0.3-0.1-0.4,0c-0.1,0.1-0.1,0.3,0,0.5l0.7,0.7c0.1,0.1,0.3,0.1,0.4,0C151.2,286.8,151.2,286.5,151.1,286.4L151.1,286.4z
			 M158.7,297.6l-0.7-0.7c-0.1-0.1-0.3-0.1-0.4,0c-0.1,0.1-0.1,0.3,0,0.5l0.7,0.7c0.1,0.1,0.3,0.1,0.4,0
			C158.8,298,158.8,297.7,158.7,297.6C158.7,297.6,158.7,297.6,158.7,297.6L158.7,297.6z M161,272.1c-0.1-0.1-0.3-0.1-0.4,0
			l-0.7,0.7c-0.1,0.1-0.1,0.3,0,0.5c0.1,0.1,0.3,0.1,0.4,0l0.7-0.7C161.2,272.5,161.2,272.3,161,272.1L161,272.1z M161,266.3
			L161,266.3c-0.1-0.1-0.3-0.1-0.4,0l-0.7,0.7c-0.1,0.1-0.1,0.3,0,0.5c0.1,0.1,0.3,0.1,0.4,0l0.7-0.7
			C161.2,266.6,161.2,266.4,161,266.3L161,266.3z M161,269.2c-0.1-0.1-0.3-0.1-0.4,0l-0.7,0.7c-0.1,0.1-0.1,0.3,0,0.5
			c0.1,0.1,0.3,0.1,0.4,0l0.7-0.7C161.2,269.6,161.2,269.3,161,269.2L161,269.2z M161,277.5c-0.1-0.1-0.3-0.1-0.4,0l-0.7,0.7
			c-0.1,0.1-0.1,0.3,0,0.5c0.1,0.1,0.3,0.1,0.4,0l0.7-0.7C161.2,277.8,161.2,277.6,161,277.5L161,277.5z M161,280.4
			c-0.1-0.1-0.3-0.1-0.4,0l-0.7,0.7c-0.1,0.1-0.1,0.3,0,0.5c0.1,0.1,0.3,0.1,0.4,0l0.7-0.7C161.2,280.7,161.2,280.5,161,280.4
			L161,280.4z M161,283.3L161,283.3c-0.1-0.1-0.3-0.1-0.4,0l-0.7,0.7c-0.1,0.1-0.1,0.3,0,0.5c0.1,0.1,0.3,0.1,0.4,0l0.7-0.7
			C161.2,283.7,161.2,283.5,161,283.3L161,283.3z M161,246.8c-0.1-0.1-0.3-0.1-0.4,0l-0.7,0.7c-0.1,0.1-0.1,0.3,0,0.5
			c0.1,0.1,0.3,0.1,0.4,0l0.7-0.7C161.2,247.2,161.2,247,161,246.8L161,246.8z M161,288.7c-0.1-0.1-0.3-0.1-0.4,0l-0.7,0.7
			c-0.1,0.1-0.1,0.3,0,0.5c0.1,0.1,0.3,0.1,0.4,0l0.7-0.7C161.2,289,161.2,288.8,161,288.7L161,288.7z M160.4,245.1l0.2-0.2
			c-0.2,0.1-0.5,0.1-0.7,0.2c0,0,0,0,0,0C160,245.2,160.2,245.2,160.4,245.1L160.4,245.1z M152.1,286.9c0.1,0.1,0.3,0.1,0.4,0
			l0.7-0.7c0.1-0.1,0.1-0.3,0-0.5c-0.1-0.1-0.3-0.1-0.4,0l-0.7,0.7C152,286.5,152,286.8,152.1,286.9L152.1,286.9z M161,258
			c-0.1-0.1-0.3-0.1-0.4,0l-0.7,0.7c-0.1,0.1-0.1,0.3,0,0.5c0.1,0.1,0.3,0.1,0.4,0l0.7-0.7C161.2,258.4,161.2,258.2,161,258L161,258
			z M161,255.1c-0.1-0.1-0.3-0.1-0.4,0l-0.7,0.7c-0.1,0.1-0.1,0.3,0,0.5c0.1,0.1,0.3,0.1,0.4,0l0.7-0.7
			C161.2,255.4,161.2,255.2,161,255.1L161,255.1z M161,261c-0.1-0.1-0.3-0.1-0.4,0l-0.7,0.7c-0.1,0.1-0.1,0.3,0,0.5
			c0.1,0.1,0.3,0.1,0.4,0l0.7-0.7C161.2,261.3,161.2,261.1,161,261L161,261z M161,294.5c-0.1-0.1-0.3-0.1-0.4,0l-0.7,0.7
			c-0.1,0.1-0.1,0.3,0,0.5c0.1,0.1,0.3,0.1,0.4,0l0.7-0.7C161.2,294.9,161.2,294.6,161,294.5L161,294.5z M159.7,264.5
			c0.1,0.1,0.3,0.1,0.4,0l0.7-0.7c0.1-0.1,0.1-0.3,0-0.5c-0.1-0.1-0.3-0.1-0.4,0c0,0,0,0,0,0l-0.7,0.7
			C159.6,264.2,159.6,264.4,159.7,264.5L159.7,264.5z M160.1,253.3l0.7-0.7c0.1-0.1,0.1-0.3,0-0.5c-0.1-0.1-0.3-0.1-0.4,0
			c0,0,0,0,0,0l-0.7,0.7c-0.1,0.1-0.1,0.3,0,0.5C159.8,253.5,160,253.5,160.1,253.3L160.1,253.3z M159.7,286.9
			c0.1,0.1,0.3,0.1,0.4,0l0.7-0.7c0.1-0.1,0.1-0.3,0-0.5c-0.1-0.1-0.3-0.1-0.4,0l-0.7,0.7C159.6,286.6,159.6,286.8,159.7,286.9
			L159.7,286.9z M159.7,275.7c0.1,0.1,0.3,0.1,0.4,0l0.7-0.7c0.1-0.1,0.1-0.3,0-0.5c-0.1-0.1-0.3-0.1-0.4,0l-0.7,0.7
			C159.6,275.4,159.6,275.6,159.7,275.7L159.7,275.7z M161,291.6c-0.1-0.1-0.3-0.1-0.4,0l-0.7,0.7c-0.1,0.1-0.1,0.3,0,0.5
			c0.1,0.1,0.3,0.1,0.4,0l0.7-0.7C161.2,291.9,161.2,291.7,161,291.6L161,291.6z M168.7,308.8c-0.1,0.1-0.1,0.3,0,0.5
			c0,0,0.1,0.1,0.2,0.1c0.2-0.4,0.5-0.9,0.7-1.3c-0.1,0-0.1,0-0.2,0.1L168.7,308.8z M160.4,312.2l0.7-0.7c0.1-0.1,0.1-0.3,0-0.5
			c-0.1-0.1-0.3-0.1-0.4,0l-0.7,0.7c-0.1,0.1-0.1,0.3,0,0.5C160,312.3,160.2,312.3,160.4,312.2L160.4,312.2z M161,299.8
			c-0.1-0.1-0.3-0.1-0.4,0l-0.7,0.7c-0.1,0.1-0.1,0.3,0,0.5c0.1,0.1,0.3,0.1,0.4,0l0.7-0.7C161.2,300.2,161.2,300,161,299.8
			L161,299.8z M159.7,298.1c0.1,0.1,0.3,0.1,0.4,0l0.7-0.7c0.1-0.1,0.1-0.3,0-0.5c-0.1-0.1-0.3-0.1-0.4,0l-0.7,0.7
			C159.6,297.7,159.6,297.9,159.7,298.1L159.7,298.1z M161,302.8c-0.1-0.1-0.3-0.1-0.4,0l-0.7,0.7c-0.1,0.1-0.1,0.3,0,0.5
			c0.1,0.1,0.3,0.1,0.4,0l0.7-0.7C161.2,303.1,161.2,302.9,161,302.8L161,302.8z M157.3,250.2l0.7,0.7c0.1,0.1,0.3,0.1,0.4,0
			c0.1-0.1,0.1-0.3,0-0.5l-0.7-0.7c-0.1-0.1-0.3-0.1-0.4,0C157.2,249.9,157.2,250.1,157.3,250.2 M159.7,309.3c0.1,0.1,0.3,0.1,0.4,0
			l0.7-0.7c0.1-0.1,0.1-0.3,0-0.5c-0.1-0.1-0.3-0.1-0.4,0l-0.7,0.7C159.6,308.9,159.6,309.1,159.7,309.3L159.7,309.3z M161,305.7
			c-0.1-0.1-0.3-0.1-0.4,0l-0.7,0.7c-0.1,0.1-0.1,0.3,0,0.5c0.1,0.1,0.3,0.1,0.4,0l0.7-0.7C161.2,306,161.2,305.8,161,305.7
			C161,305.7,161,305.7,161,305.7L161,305.7z M161,249.8c-0.1-0.1-0.3-0.1-0.4,0l-0.7,0.7c-0.1,0.1-0.1,0.3,0,0.5
			c0.1,0.1,0.3,0.1,0.4,0l0.7-0.7C161.2,250.1,161.2,249.9,161,249.8C161,249.8,161,249.8,161,249.8L161,249.8z M158.7,308.8
			l-0.7-0.7c-0.1-0.1-0.3-0.1-0.4,0c-0.1,0.1-0.1,0.3,0,0.5l0.7,0.7c0.1,0.1,0.3,0.1,0.4,0C158.8,309.1,158.8,308.9,158.7,308.8
			C158.7,308.8,158.7,308.8,158.7,308.8L158.7,308.8z M166.4,303.2l0.7,0.7c0.1,0.1,0.3,0.1,0.4,0c0.1-0.1,0.1-0.3,0-0.5l-0.7-0.7
			c-0.1-0.1-0.3-0.1-0.4,0C166.3,302.9,166.3,303.1,166.4,303.2z M158.7,275.2l-0.7-0.7c-0.1-0.1-0.3-0.1-0.4,0
			c-0.1,0.1-0.1,0.3,0,0.5l0.7,0.7c0.1,0.1,0.3,0.1,0.4,0C158.8,275.6,158.8,275.4,158.7,275.2L158.7,275.2z M158.7,286.4l-0.7-0.7
			c-0.1-0.1-0.3-0.1-0.4,0c-0.1,0.1-0.1,0.3,0,0.5l0.7,0.7c0.1,0.1,0.3,0.1,0.4,0C158.8,286.8,158.8,286.6,158.7,286.4
			C158.7,286.4,158.7,286.4,158.7,286.4L158.7,286.4z M157.3,311.5l0.7,0.7c0.1,0.1,0.3,0.1,0.4,0c0.1-0.1,0.1-0.3,0-0.5l-0.7-0.7
			c-0.1-0.1-0.3-0.1-0.4,0C157.2,311.2,157.2,311.4,157.3,311.5 M157.3,306.2l0.7,0.7c0.1,0.1,0.3,0.1,0.4,0c0.1-0.1,0.1-0.3,0-0.5
			c0,0,0,0,0,0l-0.7-0.7c-0.1-0.1-0.3-0.1-0.4,0C157.2,305.9,157.2,306,157.3,306.2 M152.6,253.3l0.7-0.7c0.1-0.1,0.1-0.3,0-0.5
			c-0.1-0.1-0.3-0.1-0.4,0l-0.7,0.7c-0.1,0.1-0.1,0.3,0,0.5C152.3,253.5,152.5,253.5,152.6,253.3L152.6,253.3z M152.1,264.5
			c0.1,0.1,0.3,0.1,0.4,0l0.7-0.7c0.1-0.1,0.1-0.3,0-0.5c-0.1-0.1-0.3-0.1-0.4,0l-0.7,0.7C152,264.2,152,264.4,152.1,264.5
			L152.1,264.5z M157.3,303.2l0.7,0.7c0.1,0.1,0.3,0.1,0.4,0c0.1-0.1,0.1-0.3,0-0.5l-0.7-0.7c-0.1-0.1-0.3-0.1-0.4,0
			C157.2,302.9,157.2,303.1,157.3,303.2 M158.7,264l-0.7-0.7c-0.1-0.1-0.3-0.1-0.4,0c-0.1,0.1-0.1,0.3,0,0.5l0.7,0.7
			c0.1,0.1,0.3,0.1,0.4,0C158.8,264.4,158.8,264.2,158.7,264C158.7,264.1,158.7,264.1,158.7,264L158.7,264z M152.1,275.7
			c0.1,0.1,0.3,0.1,0.4,0l0.7-0.7c0.1-0.1,0.1-0.3,0-0.5c-0.1-0.1-0.3-0.1-0.4,0l-0.7,0.7C152,275.4,152,275.6,152.1,275.7
			L152.1,275.7z M152.8,312.2l0.7-0.7c0.1-0.1,0.1-0.3,0-0.5c-0.1-0.1-0.3-0.1-0.4,0l-0.7,0.7c-0.1,0.1-0.1,0.3,0,0.5
			C152.5,312.3,152.7,312.3,152.8,312.2L152.8,312.2z M158.7,252.9l-0.7-0.7c-0.1-0.1-0.3-0.1-0.4,0c-0.1,0.1-0.1,0.3,0,0.5l0.7,0.7
			c0.1,0.1,0.3,0.1,0.4,0C158.8,253.2,158.8,253,158.7,252.9L158.7,252.9z M157.3,300.3l0.7,0.7c0.1,0.1,0.3,0.1,0.4,0
			c0.1-0.1,0.1-0.3,0-0.5c0,0,0,0,0,0l-0.7-0.7c-0.1-0.1-0.3-0.1-0.4,0C157.2,300,157.2,300.2,157.3,300.3 M158,248
			c0.1,0.1,0.3,0.1,0.4,0c0.1-0.1,0.1-0.3,0-0.5c0,0,0,0,0,0l-0.7-0.7c-0.1-0.1-0.3-0.1-0.4,0c-0.1,0.1-0.1,0.3,0,0.5L158,248z
			 M157.3,269.7l0.7,0.7c0.1,0.1,0.3,0.1,0.4,0c0.1-0.1,0.1-0.3,0-0.5l-0.7-0.7c-0.1-0.1-0.3-0.1-0.4,0
			C157.2,269.3,157.2,269.6,157.3,269.7 M157.3,272.6l0.7,0.7c0.1,0.1,0.3,0.1,0.4,0c0.1-0.1,0.1-0.3,0-0.5l-0.7-0.7
			c-0.1-0.1-0.3-0.1-0.4,0C157.2,272.3,157.2,272.5,157.3,272.6 M157.3,261.4l0.7,0.7c0.1,0.1,0.3,0.1,0.4,0c0.1-0.1,0.1-0.3,0-0.5
			l-0.7-0.7c-0.1-0.1-0.3-0.1-0.4,0C157.2,261.1,157.2,261.3,157.3,261.4L157.3,261.4z M157.3,258.5l0.7,0.7c0.1,0.1,0.3,0.1,0.4,0
			c0.1-0.1,0.1-0.3,0-0.5l-0.7-0.7c-0.1-0.1-0.3-0.1-0.4,0C157.2,258.2,157.2,258.4,157.3,258.5 M157.3,255.6l0.7,0.7
			c0.1,0.1,0.3,0.1,0.4,0c0.1-0.1,0.1-0.3,0-0.5l-0.7-0.7c-0.1-0.1-0.3-0.1-0.4,0C157.2,255.2,157.2,255.4,157.3,255.6 M157.3,266.8
			l0.7,0.7c0.1,0.1,0.3,0.1,0.4,0c0.1-0.1,0.1-0.3,0-0.5l-0.7-0.7c-0.1-0.1-0.3-0.1-0.4,0C157.2,266.4,157.2,266.6,157.3,266.8
			L157.3,266.8z M157.3,292.1l0.7,0.7c0.1,0.1,0.3,0.1,0.4,0c0.1-0.1,0.1-0.3,0-0.5l-0.7-0.7c-0.1-0.1-0.3-0.1-0.4,0
			C157.2,291.7,157.2,291.9,157.3,292.1 M157.3,289.1l0.7,0.7c0.1,0.1,0.3,0.1,0.4,0c0.1-0.1,0.1-0.3,0-0.5l-0.7-0.7
			c-0.1-0.1-0.3-0.1-0.4,0C157.2,288.8,157.2,289,157.3,289.1 M157.3,295l0.7,0.7c0.1,0.1,0.3,0.1,0.4,0c0.1-0.1,0.1-0.3,0-0.5
			l-0.7-0.7c-0.1-0.1-0.3-0.1-0.4,0C157.2,294.7,157.2,294.9,157.3,295 M157.3,283.8l0.7,0.7c0.1,0.1,0.3,0.1,0.4,0
			c0.1-0.1,0.1-0.3,0-0.5l-0.7-0.7c-0.1-0.1-0.3-0.1-0.4,0C157.2,283.5,157.2,283.7,157.3,283.8L157.3,283.8z M157.3,277.9l0.7,0.7
			c0.1,0.1,0.3,0.1,0.4,0c0.1-0.1,0.1-0.3,0-0.5c0,0,0,0,0,0l-0.7-0.7c-0.1-0.1-0.3-0.1-0.4,0C157.2,277.6,157.2,277.8,157.3,277.9
			L157.3,277.9z M157.3,280.9l0.7,0.7c0.1,0.1,0.3,0.1,0.4,0c0.1-0.1,0.1-0.3,0-0.5c0,0,0,0,0,0l-0.7-0.7c-0.1-0.1-0.3-0.1-0.4,0
			C157.2,280.5,157.2,280.7,157.3,280.9 M136.9,302.8c-0.1-0.1-0.3-0.1-0.4,0l-0.7,0.7c-0.1,0.1-0.1,0.3,0,0.5
			c0.1,0.1,0.3,0.1,0.4,0l0.7-0.7C137,303.1,137,302.9,136.9,302.8C136.9,302.8,136.9,302.8,136.9,302.8L136.9,302.8z M140.7,295
			l0.7,0.7c0.1,0.1,0.3,0.1,0.4,0c0.1-0.1,0.1-0.3,0-0.5l-0.7-0.7c-0.1-0.1-0.3-0.1-0.4,0C140.6,294.7,140.6,294.9,140.7,295
			L140.7,295z M140.7,300.3l0.7,0.7c0.1,0.1,0.3,0.1,0.4,0c0.1-0.1,0.1-0.3,0-0.5l-0.7-0.7c-0.1-0.1-0.3-0.1-0.4,0
			C140.6,300,140.6,300.2,140.7,300.3L140.7,300.3z M140.7,303.2l0.7,0.7c0.1,0.1,0.3,0.1,0.4,0c0.1-0.1,0.1-0.3,0-0.5l-0.7-0.7
			c-0.1-0.1-0.3-0.1-0.4,0C140.6,302.9,140.6,303.1,140.7,303.2L140.7,303.2z M140.7,289.1l0.7,0.7c0.1,0.1,0.3,0.1,0.4,0
			c0.1-0.1,0.1-0.3,0-0.4l-0.7-0.7c-0.1-0.1-0.3-0.1-0.4,0C140.6,288.8,140.6,289,140.7,289.1L140.7,289.1z M140.7,292.1l0.7,0.7
			c0.1,0.1,0.3,0.1,0.4,0c0.1-0.1,0.1-0.3,0-0.5l-0.7-0.7c-0.1-0.1-0.3-0.1-0.4,0C140.6,291.7,140.6,291.9,140.7,292.1L140.7,292.1z
			 M140.7,306.2l0.7,0.7c0.1,0.1,0.3,0.1,0.4,0c0.1-0.1,0.1-0.3,0-0.5l-0.7-0.7c-0.1-0.1-0.3-0.1-0.4,0
			C140.6,305.8,140.6,306,140.7,306.2L140.7,306.2z M140.7,283.8l0.7,0.7c0.1,0.1,0.3,0.1,0.4,0c0.1-0.1,0.1-0.3,0-0.5l-0.7-0.7
			c-0.1-0.1-0.3-0.1-0.4,0C140.6,283.5,140.6,283.7,140.7,283.8L140.7,283.8z M140.7,311.5l0.7,0.7c0.1,0.1,0.3,0.1,0.4,0
			c0.1-0.1,0.1-0.3,0-0.5l-0.7-0.7c-0.1-0.1-0.3-0.1-0.4,0C140.6,311.2,140.6,311.4,140.7,311.5L140.7,311.5z M142.1,275.2l-0.7-0.7
			c-0.1-0.1-0.3-0.1-0.4,0c-0.1,0.1-0.1,0.3,0,0.5l0.7,0.7c0.1,0.1,0.3,0.1,0.4,0C142.2,275.6,142.2,275.4,142.1,275.2L142.1,275.2z
			 M142.1,264l-0.7-0.7c-0.1-0.1-0.3-0.1-0.4,0c-0.1,0.1-0.1,0.3,0,0.5l0.7,0.7c0.1,0.1,0.3,0.1,0.4,0
			C142.2,264.4,142.2,264.2,142.1,264C142.1,264.1,142.1,264.1,142.1,264L142.1,264z M142.1,286.4l-0.7-0.7c-0.1-0.1-0.3-0.1-0.4,0
			c-0.1,0.1-0.1,0.3,0,0.5l0.7,0.7c0.1,0.1,0.3,0.1,0.4,0C142.2,286.7,142.2,286.6,142.1,286.4L142.1,286.4z M142.1,308.8l-0.7-0.7
			c-0.1-0.1-0.3-0.1-0.4,0c-0.1,0.1-0.1,0.3,0,0.5l0.7,0.7c0.1,0.1,0.3,0.1,0.4,0C142.2,309.1,142.2,308.9,142.1,308.8L142.1,308.8z
			 M142.1,297.6l-0.7-0.7c-0.1-0.1-0.3-0.1-0.4,0c-0.1,0.1-0.1,0.3,0,0.5l0.7,0.7c0.1,0.1,0.3,0.1,0.4,0
			C142.2,297.9,142.2,297.7,142.1,297.6L142.1,297.6z M141.8,259.2c0.1-0.1,0.1-0.3,0-0.5l0,0c-0.1,0.2-0.2,0.4-0.3,0.6
			C141.6,259.3,141.7,259.3,141.8,259.2L141.8,259.2z M144.4,272.1c-0.1-0.1-0.3-0.1-0.4,0l-0.7,0.7c-0.1,0.1-0.1,0.3,0,0.5
			c0.1,0.1,0.3,0.1,0.4,0l0.7-0.7C144.6,272.5,144.6,272.3,144.4,272.1L144.4,272.1L144.4,272.1z M144.4,269.2
			c-0.1-0.1-0.3-0.1-0.4,0l-0.7,0.7c-0.1,0.1-0.1,0.3,0,0.5c0.1,0.1,0.3,0.1,0.4,0l0.7-0.7C144.6,269.6,144.6,269.3,144.4,269.2
			C144.4,269.2,144.4,269.2,144.4,269.2L144.4,269.2z M144.4,266.3L144.4,266.3c-0.1-0.1-0.3-0.1-0.4,0l-0.7,0.7
			c-0.1,0.1-0.1,0.3,0,0.5c0.1,0.1,0.3,0.1,0.4,0l0.7-0.7C144.6,266.6,144.6,266.4,144.4,266.3C144.4,266.3,144.4,266.3,144.4,266.3
			L144.4,266.3z M144.4,280.4c-0.1-0.1-0.3-0.1-0.4,0l-0.7,0.7c-0.1,0.1-0.1,0.3,0,0.5c0.1,0.1,0.3,0.1,0.4,0l0.7-0.7
			C144.6,280.7,144.6,280.5,144.4,280.4C144.4,280.4,144.4,280.4,144.4,280.4L144.4,280.4z M140.7,280.9l0.7,0.7
			c0.1,0.1,0.3,0.1,0.4,0c0.1-0.1,0.1-0.3,0-0.5l-0.7-0.7c-0.1-0.1-0.3-0.1-0.4,0C140.6,280.5,140.6,280.7,140.7,280.9L140.7,280.9z
			 M144.4,261c-0.1-0.1-0.3-0.1-0.4,0l-0.7,0.7c-0.1,0.1-0.1,0.3,0,0.5c0.1,0.1,0.3,0.1,0.4,0l0.7-0.7
			C144.6,261.3,144.6,261.1,144.4,261L144.4,261L144.4,261z M144.4,277.5c-0.1-0.1-0.3-0.1-0.4,0l-0.7,0.7c-0.1,0.1-0.1,0.3,0,0.5
			c0.1,0.1,0.3,0.1,0.4,0l0.7-0.7C144.6,277.8,144.6,277.6,144.4,277.5C144.4,277.5,144.4,277.5,144.4,277.5L144.4,277.5z
			 M140.7,269.7l0.7,0.7c0.1,0.1,0.3,0.1,0.4,0c0.1-0.1,0.1-0.3,0-0.5l-0.7-0.7c-0.1-0.1-0.3-0.1-0.4,0
			C140.6,269.3,140.6,269.6,140.7,269.7L140.7,269.7z M140.7,272.6l0.7,0.7c0.1,0.1,0.3,0.1,0.4,0c0.1-0.1,0.1-0.3,0-0.5
			c0,0,0,0,0,0l-0.7-0.7c-0.1-0.1-0.3-0.1-0.4,0C140.6,272.3,140.6,272.5,140.7,272.6L140.7,272.6z M140.7,277.9l0.7,0.7
			c0.1,0.1,0.3,0.1,0.4,0c0.1-0.1,0.1-0.3,0-0.5l-0.7-0.7c-0.1-0.1-0.3-0.1-0.4,0C140.6,277.6,140.6,277.8,140.7,277.9L140.7,277.9z
			 M141.4,262.1c0.1,0.1,0.3,0.1,0.4,0c0.1-0.1,0.1-0.3,0-0.5l-0.7-0.7c-0.1-0.1-0.3-0.1-0.4,0c-0.1,0.1-0.1,0.3,0,0.5L141.4,262.1z
			 M144.4,258c-0.1-0.1-0.3-0.1-0.4,0l-0.7,0.7c-0.1,0.1-0.1,0.3,0,0.5c0.1,0.1,0.3,0.1,0.4,0l0.7-0.7
			C144.6,258.4,144.6,258.2,144.4,258L144.4,258L144.4,258z M140.7,266.8l0.7,0.7c0.1,0.1,0.3,0.1,0.4,0s0.1-0.3,0-0.5l-0.7-0.7
			c-0.1-0.1-0.3-0.1-0.4,0C140.6,266.4,140.6,266.6,140.7,266.8L140.7,266.8z M136.5,299.8l-0.7,0.7c-0.1,0.1-0.1,0.3,0,0.5
			c0.1,0.1,0.3,0.1,0.4,0l0.7-0.7c0.1-0.1,0.1-0.3,0-0.5C136.8,299.7,136.6,299.7,136.5,299.8 M133.2,292.1l0.7,0.7
			c0.1,0.1,0.3,0.1,0.4,0c0.1-0.1,0.1-0.3,0-0.5l-0.7-0.7c-0.1-0.1-0.3-0.1-0.4,0C133.1,291.7,133.1,291.9,133.2,292.1 M136.9,269.2
			c0,0-0.1-0.1-0.1-0.1c-0.1,0.4-0.2,0.7-0.4,1.1l0.5-0.5C137,269.6,137,269.3,136.9,269.2L136.9,269.2L136.9,269.2z M133.2,306.2
			l0.7,0.7c0.1,0.1,0.3,0.1,0.4,0c0.1-0.1,0.1-0.3,0-0.5l-0.7-0.7c-0.1-0.1-0.3-0.1-0.4,0C133.1,305.8,133.1,306,133.2,306.2
			 M133.8,289.8c0.1,0.1,0.3,0.1,0.4,0c0.1-0.1,0.1-0.3,0-0.5c0,0,0,0,0,0l-0.7-0.7c-0.1-0.1-0.3-0.1-0.4,0c-0.1,0.1-0.1,0.3,0,0.5
			L133.8,289.8z M133.2,295l0.7,0.7c0.1,0.1,0.3,0.1,0.4,0c0.1-0.1,0.1-0.3,0-0.5l-0.7-0.7c-0.1-0.1-0.3-0.1-0.4,0
			C133.1,294.7,133.1,294.9,133.2,295 M134.1,309.3c0.1,0.1,0.3,0.1,0.4,0c0.1-0.1,0.1-0.3,0-0.5l-0.7-0.7c-0.1-0.1-0.3-0.1-0.4,0
			c-0.1,0.1-0.1,0.3,0,0.5L134.1,309.3z M133.2,303.2l0.7,0.7c0.1,0.1,0.3,0.1,0.4,0c0.1-0.1,0.1-0.3,0-0.5l-0.7-0.7
			c-0.1-0.1-0.3-0.1-0.4,0C133.1,302.9,133.1,303.1,133.2,303.2 M134.3,284.5c0.1-0.1,0.1-0.3,0-0.5l-0.7-0.7
			c-0.1-0.1-0.2-0.1-0.3-0.1c0,0.2-0.1,0.4-0.1,0.6l0.6,0.7C134,284.6,134.2,284.6,134.3,284.5C134.3,284.5,134.3,284.5,134.3,284.5
			L134.3,284.5z M134.5,297.6l-0.7-0.7c-0.1-0.1-0.3-0.1-0.4,0c-0.1,0.1-0.1,0.3,0,0.5l0.7,0.7c0.1,0.1,0.3,0.1,0.4,0
			C134.7,297.9,134.7,297.7,134.5,297.6L134.5,297.6z M136.9,311c-0.1-0.1-0.3-0.1-0.4,0l-0.7,0.7c0,0,0,0,0,0
			c0.2,0.1,0.4,0.1,0.7,0.2l0.4-0.5C137,311.4,137,311.2,136.9,311L136.9,311z M134.3,278.6c0.1-0.1,0.1-0.3,0-0.5l0,0
			c0,0.2-0.1,0.4-0.1,0.6C134.2,278.7,134.2,278.7,134.3,278.6L134.3,278.6z M134.5,286.4l-0.7-0.7c-0.1-0.1-0.3-0.1-0.4,0
			c-0.1,0.1-0.1,0.3,0,0.5l0.7,0.7c0.1,0.1,0.3,0.1,0.4,0C134.7,286.8,134.7,286.6,134.5,286.4 M134.3,281.6c0.1-0.1,0.1-0.3,0-0.5
			l-0.5-0.5c0,0.3-0.1,0.5-0.1,0.8l0.2,0.2C134,281.7,134.2,281.7,134.3,281.6C134.3,281.6,134.3,281.6,134.3,281.6L134.3,281.6z
			 M133.2,300.3l0.7,0.7c0.1,0.1,0.3,0.1,0.4,0c0.1-0.1,0.1-0.3,0-0.5l-0.7-0.7c-0.1-0.1-0.3-0.1-0.4,0
			C133.1,300,133.1,300.2,133.2,300.3L133.2,300.3z M136.5,283.3l-0.7,0.7c-0.1,0.1-0.1,0.3,0,0.5c0.1,0.1,0.3,0.1,0.4,0l0.7-0.7
			c0.1-0.1,0.1-0.3,0-0.5C136.8,283.2,136.6,283.2,136.5,283.3L136.5,283.3z M136.9,280.4c-0.1-0.1-0.3-0.1-0.4,0l-0.7,0.7
			c-0.1,0.1-0.1,0.3,0,0.5c0.1,0.1,0.3,0.1,0.4,0l0.7-0.7C137,280.7,137,280.5,136.9,280.4L136.9,280.4L136.9,280.4z M135.6,275.7
			c0.1,0.1,0.3,0.1,0.4,0l0.7-0.7c0.1-0.1,0.1-0.3,0-0.5c-0.1-0.1-0.3-0.1-0.4,0l-0.7,0.7C135.4,275.4,135.4,275.6,135.6,275.7
			L135.6,275.7z M136.9,272.1c-0.1-0.1-0.3-0.1-0.4,0l-0.7,0.7c-0.1,0.1-0.1,0.3,0,0.5c0.1,0.1,0.3,0.1,0.4,0l0.7-0.7
			C137,272.5,137,272.3,136.9,272.1L136.9,272.1z M136.5,277.5l-0.7,0.7c-0.1,0.1-0.1,0.3,0,0.5c0.1,0.1,0.3,0.1,0.4,0l0.7-0.7
			c0.1-0.1,0.1-0.3,0-0.5C136.8,277.3,136.6,277.3,136.5,277.5L136.5,277.5z M135.6,286.9c0.1,0.1,0.3,0.1,0.4,0l0.7-0.7
			c0.1-0.1,0.1-0.3,0-0.5c-0.1-0.1-0.3-0.1-0.4,0l-0.7,0.7C135.4,286.6,135.4,286.8,135.6,286.9L135.6,286.9z M136.5,288.7l-0.7,0.7
			c-0.1,0.1-0.1,0.3,0,0.5c0.1,0.1,0.3,0.1,0.4,0l0.7-0.7c0.1-0.1,0.1-0.3,0-0.5C136.8,288.5,136.6,288.5,136.5,288.7
			C136.5,288.7,136.5,288.7,136.5,288.7 M136.9,305.7c-0.1-0.1-0.3-0.1-0.4,0l-0.7,0.7c-0.1,0.1-0.1,0.3,0,0.5
			c0.1,0.1,0.3,0.1,0.4,0l0.7-0.7C137,306,137,305.8,136.9,305.7L136.9,305.7z M135.6,309.3c0.1,0.1,0.3,0.1,0.4,0l0.7-0.7
			c0.1-0.1,0.1-0.3,0-0.5c-0.1-0.1-0.3-0.1-0.4,0l-0.7,0.7C135.4,308.9,135.4,309.1,135.6,309.3L135.6,309.3z M136.9,291.6
			c-0.1-0.1-0.3-0.1-0.4,0l-0.7,0.7c-0.1,0.1-0.1,0.3,0,0.5c0.1,0.1,0.3,0.1,0.4,0l0.7-0.7C137,291.9,137,291.7,136.9,291.6
			L136.9,291.6z M135.6,298.1c0.1,0.1,0.3,0.1,0.4,0l0.7-0.7c0.1-0.1,0.1-0.3,0-0.5c-0.1-0.1-0.3-0.1-0.4,0l-0.7,0.7
			C135.4,297.7,135.4,297.9,135.6,298.1L135.6,298.1z M136.9,294.5c-0.1-0.1-0.3-0.1-0.4,0l-0.7,0.7c-0.1,0.1-0.1,0.3,0,0.5
			c0.1,0.1,0.3,0.1,0.4,0l0.7-0.7C137,294.9,137,294.6,136.9,294.5L136.9,294.5z M144.4,283.3L144.4,283.3c-0.1-0.1-0.3-0.1-0.4,0
			l-0.7,0.7c-0.1,0.1-0.1,0.3,0,0.5c0.1,0.1,0.3,0.1,0.4,0l0.7-0.7C144.6,283.7,144.6,283.5,144.4,283.3
			C144.4,283.3,144.4,283.3,144.4,283.3L144.4,283.3z M174.4,266.3c-0.1-0.1-0.3-0.1-0.4,0c-0.1,0.1-0.1,0.3,0,0.5l0.7,0.7
			c0.1,0.1,0.3,0.1,0.4,0c0.1-0.1,0.1-0.3,0-0.5c0,0,0,0,0,0L174.4,266.3z M170.1,277.5c-0.1-0.1-0.3-0.1-0.4,0l-0.7,0.7
			c-0.1,0.1-0.1,0.3,0,0.5c0.1,0.1,0.3,0.1,0.4,0l0.7-0.7C170.2,277.8,170.2,277.6,170.1,277.5L170.1,277.5z M170.1,288.7
			c-0.1-0.1-0.3-0.1-0.4,0l-0.7,0.7c-0.1,0.1-0.1,0.3,0,0.5c0.1,0.1,0.3,0.1,0.4,0l0.7-0.7C170.2,289,170.2,288.8,170.1,288.7
			C170.1,288.7,170.1,288.7,170.1,288.7L170.1,288.7z M170.1,280.4c-0.1-0.1-0.3-0.1-0.4,0l-0.7,0.7c-0.1,0.1-0.1,0.3,0,0.5
			c0.1,0.1,0.3,0.1,0.4,0l0.7-0.7C170.2,280.7,170.2,280.5,170.1,280.4L170.1,280.4L170.1,280.4z M170.1,283.3L170.1,283.3
			c-0.1-0.1-0.3-0.1-0.4,0L169,284c-0.1,0.1-0.1,0.3,0,0.5c0.1,0.1,0.3,0.1,0.4,0l0.7-0.7C170.2,283.7,170.2,283.5,170.1,283.3
			C170.1,283.3,170.1,283.3,170.1,283.3L170.1,283.3z M170.1,294.5c-0.1-0.1-0.3-0.1-0.4,0l-0.7,0.7c-0.1,0.1-0.1,0.3,0,0.5
			c0.1,0.1,0.3,0.1,0.4,0l0.7-0.7C170.2,294.9,170.2,294.6,170.1,294.5C170.1,294.5,170.1,294.5,170.1,294.5L170.1,294.5z
			 M170.1,291.6c-0.1-0.1-0.3-0.1-0.4,0l-0.7,0.7c-0.1,0.1-0.1,0.3,0,0.5c0.1,0.1,0.3,0.1,0.4,0l0.7-0.7
			C170.2,291.9,170.2,291.7,170.1,291.6C170.1,291.6,170.1,291.6,170.1,291.6L170.1,291.6z M170.1,299.8c-0.1-0.1-0.3-0.1-0.4,0
			l-0.7,0.7c-0.1,0.1-0.1,0.3,0,0.5c0.1,0.1,0.3,0.1,0.4,0l0.7-0.7C170.2,300.2,170.2,300,170.1,299.8L170.1,299.8L170.1,299.8z
			 M170.1,261c-0.1-0.1-0.3-0.1-0.4,0l-0.7,0.7c-0.1,0.1-0.1,0.3,0,0.5c0.1,0.1,0.3,0.1,0.4,0l0.7-0.7
			C170.2,261.3,170.2,261.1,170.1,261C170.1,261,170.1,261,170.1,261L170.1,261z M170.1,258c-0.1-0.1-0.3-0.1-0.4,0l-0.7,0.7
			c-0.1,0.1-0.1,0.3,0,0.5c0.1,0.1,0.3,0.1,0.4,0l0.7-0.7C170.2,258.4,170.2,258.2,170.1,258C170.1,258,170.1,258,170.1,258
			L170.1,258z M170.1,255.1c-0.1-0.1-0.3-0.1-0.4,0l-0.7,0.7c-0.1,0.1-0.1,0.3,0,0.5c0.1,0.1,0.3,0.1,0.4,0l0.7-0.7
			C170.2,255.4,170.2,255.2,170.1,255.1L170.1,255.1L170.1,255.1z M170.1,266.3L170.1,266.3c-0.1-0.1-0.3-0.1-0.4,0L169,267
			c-0.1,0.1-0.1,0.3,0,0.5c0.1,0.1,0.3,0.1,0.4,0l0.7-0.7C170.2,266.6,170.2,266.4,170.1,266.3L170.1,266.3z M170.1,272.1
			c-0.1-0.1-0.3-0.1-0.4,0l-0.7,0.7c-0.1,0.1-0.1,0.3,0,0.5c0.1,0.1,0.3,0.1,0.4,0l0.7-0.7C170.2,272.5,170.2,272.3,170.1,272.1
			C170.1,272.1,170.1,272.1,170.1,272.1L170.1,272.1z M170.1,269.2c-0.1-0.1-0.3-0.1-0.4,0l-0.7,0.7c-0.1,0.1-0.1,0.3,0,0.5
			c0.1,0.1,0.3,0.1,0.4,0l0.7-0.7C170.2,269.6,170.2,269.3,170.1,269.2L170.1,269.2L170.1,269.2z M167.7,297.6l-0.7-0.7
			c-0.1-0.1-0.3-0.1-0.4,0c-0.1,0.1-0.1,0.3,0,0.5l0.7,0.7c0.1,0.1,0.3,0.1,0.4,0C167.8,297.9,167.8,297.7,167.7,297.6L167.7,297.6z
			 M169.6,305.7l-0.7,0.7c-0.1,0.1-0.1,0.3,0,0.5c0.1,0.1,0.3,0.1,0.4,0l0.7-0.7c0.1-0.1,0.1-0.3,0-0.5
			C170,305.6,169.8,305.6,169.6,305.7z M167.7,275.2l-0.7-0.7c-0.1-0.1-0.3-0.1-0.4,0c-0.1,0.1-0.1,0.3,0,0.5l0.7,0.7
			c0.1,0.1,0.3,0.1,0.4,0C167.8,275.6,167.9,275.4,167.7,275.2C167.7,275.2,167.7,275.2,167.7,275.2L167.7,275.2z M167.7,264
			l-0.7-0.7c-0.1-0.1-0.3-0.1-0.4,0c-0.1,0.1-0.1,0.3,0,0.5l0.7,0.7c0.1,0.1,0.3,0.1,0.4,0C167.8,264.4,167.8,264.2,167.7,264z
			 M166.8,255.1c-0.1-0.1-0.3-0.1-0.4,0c-0.1,0.1-0.1,0.3,0,0.5l0.7,0.7c0.1,0.1,0.3,0.1,0.4,0c0.1-0.1,0.1-0.3,0-0.5c0,0,0,0,0,0
			L166.8,255.1z M167.3,309.3c0.1,0.1,0.3,0.1,0.4,0c0.1-0.1,0.1-0.3,0-0.5l-0.7-0.7c-0.1-0.1-0.3-0.1-0.4,0c-0.1,0.1-0.1,0.3,0,0.5
			L167.3,309.3z M168.7,253.3c0.1,0.1,0.1,0.1,0.2,0.1c-0.1-0.1-0.2-0.1-0.3-0.2C168.7,253.2,168.7,253.3,168.7,253.3L168.7,253.3z
			 M167.7,286.4l-0.7-0.7c-0.1-0.1-0.3-0.1-0.4,0c-0.1,0.1-0.1,0.3,0,0.5l0.7,0.7c0.1,0.1,0.3,0.1,0.4,0
			C167.8,286.7,167.8,286.5,167.7,286.4 M167.1,252.2c-0.1-0.1-0.3-0.1-0.4,0c-0.1,0.1-0.1,0.3,0,0.5l0.7,0.7c0.1,0.1,0.3,0.1,0.4,0
			c0.1-0.1,0.1-0.3,0-0.5c0,0,0,0,0,0L167.1,252.2z M168.7,298.1c0.1,0.1,0.3,0.1,0.4,0l0.7-0.7c0.1-0.1,0.1-0.3,0-0.5
			c-0.1-0.1-0.3-0.1-0.4,0l-0.7,0.7C168.6,297.7,168.6,297.9,168.7,298.1L168.7,298.1z M170.1,302.8c-0.1-0.1-0.3-0.1-0.4,0
			l-0.7,0.7c-0.1,0.1-0.1,0.3,0,0.5c0.1,0.1,0.3,0.1,0.4,0l0.7-0.7C170.2,303.1,170.2,302.9,170.1,302.8
			C170.1,302.8,170.1,302.8,170.1,302.8L170.1,302.8z M168.7,286.9c0.1,0.1,0.3,0.1,0.4,0l0.7-0.7c0.1-0.1,0.1-0.3,0-0.5
			c-0.1-0.1-0.3-0.1-0.4,0l-0.7,0.7C168.6,286.6,168.6,286.8,168.7,286.9L168.7,286.9z M168.7,275.7c0.1,0.1,0.3,0.1,0.4,0l0.7-0.7
			c0.1-0.1,0.1-0.3,0-0.5c-0.1-0.1-0.3-0.1-0.4,0c0,0,0,0,0,0l-0.7,0.7C168.6,275.4,168.6,275.6,168.7,275.7L168.7,275.7z
			 M169.2,264.5l0.7-0.7c0.1-0.1,0.1-0.3,0-0.5c-0.1-0.1-0.3-0.1-0.4,0l-0.7,0.7c-0.1,0.1-0.1,0.3,0,0.5
			C168.9,264.6,169.1,264.6,169.2,264.5L169.2,264.5z M173.9,277.9l0.7,0.7c0.1,0.1,0.3,0.1,0.4,0c0.1-0.1,0.1-0.3,0-0.5l-0.7-0.7
			c-0.1-0.1-0.3-0.1-0.4,0C173.8,277.6,173.8,277.8,173.9,277.9L173.9,277.9z M143.5,264.5l0.7-0.7c0.1-0.1,0.1-0.3,0-0.5
			c-0.1-0.1-0.3-0.1-0.4,0l-0.7,0.7c-0.1,0.1-0.1,0.3,0,0.5C143.2,264.6,143.4,264.6,143.5,264.5z M143.1,275.7
			c0.1,0.1,0.3,0.1,0.4,0l0.7-0.7c0.1-0.1,0.1-0.3,0-0.5c-0.1-0.1-0.3-0.1-0.4,0l-0.7,0.7C143,275.4,143,275.6,143.1,275.7
			L143.1,275.7z M143.1,286.9c0.1,0.1,0.3,0.1,0.4,0l0.7-0.7c0.1-0.1,0.1-0.3,0-0.5c-0.1-0.1-0.3-0.1-0.4,0l-0.7,0.7
			C143,286.6,143,286.8,143.1,286.9L143.1,286.9z M174.4,258c-0.1-0.1-0.3-0.1-0.4,0c-0.1,0.1-0.1,0.3,0,0.5c0,0,0,0,0,0l0.7,0.7
			c0,0,0.1,0.1,0.1,0.1C174.6,258.8,174.5,258.5,174.4,258L174.4,258z M143.8,256.3l0.7-0.7c0.1-0.1,0.1-0.3,0-0.4
			c0,0-0.1-0.1-0.1-0.1c-0.3,0.4-0.7,0.8-1,1.2C143.5,256.4,143.7,256.4,143.8,256.3L143.8,256.3z M143.8,312.2l0.7-0.7
			c0.1-0.1,0.1-0.3,0-0.5c-0.1-0.1-0.3-0.1-0.4,0l-0.7,0.7c-0.1,0.1-0.1,0.3,0,0.5C143.5,312.3,143.7,312.3,143.8,312.2
			C143.8,312.2,143.8,312.2,143.8,312.2L143.8,312.2z M143.1,298.1c0.1,0.1,0.3,0.1,0.4,0l0.7-0.7c0.1-0.1,0.1-0.3,0-0.5
			c-0.1-0.1-0.3-0.1-0.4,0l-0.7,0.7C143,297.7,143,297.9,143.1,298.1L143.1,298.1z M143.1,309.3c0.1,0.1,0.3,0.1,0.4,0l0.7-0.7
			c0.1-0.1,0.1-0.3,0-0.5c-0.1-0.1-0.3-0.1-0.4,0l-0.7,0.7C143,308.9,143,309.1,143.1,309.3L143.1,309.3z M144.4,291.6
			c-0.1-0.1-0.3-0.1-0.4,0l-0.7,0.7c-0.1,0.1-0.1,0.3,0,0.5c0.1,0.1,0.3,0.1,0.4,0l0.7-0.7C144.6,291.9,144.6,291.7,144.4,291.6
			L144.4,291.6z M144.4,299.8c-0.1-0.1-0.3-0.1-0.4,0l-0.7,0.7c-0.1,0.1-0.1,0.3,0,0.5c0.1,0.1,0.3,0.1,0.4,0l0.7-0.7
			C144.6,300.2,144.6,300,144.4,299.8L144.4,299.8z M144.4,294.5c-0.1-0.1-0.3-0.1-0.4,0l-0.7,0.7c-0.1,0.1-0.1,0.3,0,0.5
			c0.1,0.1,0.3,0.1,0.4,0l0.7-0.7C144.6,294.9,144.6,294.6,144.4,294.5L144.4,294.5z M144.4,305.7c-0.1-0.1-0.3-0.1-0.4,0l-0.7,0.7
			c-0.1,0.1-0.1,0.3,0,0.5c0.1,0.1,0.3,0.1,0.4,0l0.7-0.7C144.6,306,144.6,305.8,144.4,305.7L144.4,305.7z M173.9,294.5
			c-0.1,0.1-0.1,0.3,0,0.5l0.2,0.2c0.1-0.2,0.1-0.5,0.2-0.7C174.1,294.4,174,294.4,173.9,294.5L173.9,294.5z M144.4,302.8
			c-0.1-0.1-0.3-0.1-0.4,0l-0.7,0.7c-0.1,0.1-0.1,0.3,0,0.5c0.1,0.1,0.3,0.1,0.4,0l0.7-0.7C144.6,303.1,144.6,302.9,144.4,302.8
			L144.4,302.8z M173.9,280.9l0.7,0.7c0.1,0.1,0.3,0.1,0.4,0c0.1-0.1,0.1-0.3,0-0.5l-0.7-0.7c-0.1-0.1-0.3-0.1-0.4,0
			C173.8,280.5,173.8,280.7,173.9,280.9 M173.9,289.1l0.7,0.7c0.1,0.1,0.3,0.1,0.4,0c0.1-0.1,0.1-0.3,0-0.5c0,0,0,0,0,0l-0.7-0.7
			c-0.1-0.1-0.3-0.1-0.4,0C173.8,288.8,173.8,289,173.9,289.1C173.9,289.1,173.9,289.1,173.9,289.1 M173.9,283.8l0.7,0.7
			c0.1,0.1,0.3,0.1,0.4,0c0.1-0.1,0.1-0.3,0-0.5l-0.7-0.7c-0.1-0.1-0.3-0.1-0.4,0C173.8,283.5,173.8,283.7,173.9,283.8L173.9,283.8z
			 M144.4,288.7c-0.1-0.1-0.3-0.1-0.4,0l-0.7,0.7c-0.1,0.1-0.1,0.3,0,0.5c0.1,0.1,0.3,0.1,0.4,0l0.7-0.7
			C144.6,289,144.6,288.8,144.4,288.7L144.4,288.7z M173.9,272.6l0.7,0.7c0.1,0.1,0.3,0.1,0.4,0c0.1-0.1,0.1-0.3,0-0.5l-0.7-0.7
			c-0.1-0.1-0.3-0.1-0.4,0C173.8,272.3,173.8,272.5,173.9,272.6 M174.6,263.4c-0.1-0.1-0.3-0.1-0.4,0c-0.1,0.1-0.1,0.3,0,0.5
			l0.7,0.7c0.1,0.1,0.3,0.1,0.4,0c0.1-0.1,0.1-0.3,0-0.5L174.6,263.4z M174.6,270.4c0.1,0.1,0.3,0.1,0.4,0c0.1-0.1,0.1-0.3,0-0.5
			c0,0,0,0,0,0l-0.7-0.7c-0.1-0.1-0.3-0.1-0.4,0c-0.1,0.1-0.1,0.3,0,0.5c0,0,0,0,0,0L174.6,270.4z M175.3,286.4l-0.7-0.7
			c-0.1-0.1-0.3-0.1-0.4,0c-0.1,0.1-0.1,0.3,0,0.5l0.7,0.7c0.1,0.1,0.3,0.1,0.4,0C175.4,286.8,175.4,286.5,175.3,286.4z M175,262.1
			c0.1-0.1,0.1-0.3,0-0.5l-0.7-0.7c-0.1-0.1-0.3-0.1-0.4,0c-0.1,0.1-0.1,0.3,0,0.4l0.7,0.7C174.7,262.2,174.9,262.2,175,262.1
			L175,262.1z M173.9,291.6c-0.1,0.1-0.1,0.3,0,0.5l0.7,0.7c0,0,0,0,0,0c0-0.3,0.1-0.5,0.1-0.8l-0.4-0.4
			C174.2,291.5,174,291.5,173.9,291.6L173.9,291.6z M166.4,306.2l0.7,0.7c0.1,0.1,0.3,0.1,0.4,0c0.1-0.1,0.1-0.3,0-0.5l-0.7-0.7
			c-0.1-0.1-0.3-0.1-0.4,0C166.3,305.9,166.3,306,166.4,306.2 M175.3,275.2l-0.7-0.7c-0.1-0.1-0.3-0.1-0.4,0c-0.1,0.1-0.1,0.3,0,0.5
			l0.7,0.7c0.1,0.1,0.3,0.1,0.4,0C175.4,275.6,175.4,275.4,175.3,275.2C175.3,275.2,175.3,275.2,175.3,275.2z"/>
		<path class="st4" d="M185,236.4c0,0-0.2-6.7-3.1-8.3c-0.3-0.1-9.5,3.9-10.6,3.5c-1.5,0.2-1.3,1.6-1.5,1.8
			c-0.2,0.1-0.9,0.1-0.6-1.5s-1.1-4.8-3.5-2.2c-2.4,2.6-0.8,6.8,2,6.2c0.6,0.5,3.6,5.3-2.3,4.5c-5.9-0.7-7.6-10.8-5.6-17.2
			c2-6.4,12.2-13.7,21-8.9c4.2,2.1,6.3,8,6.6,12.3C187.9,230.8,185.8,235.9,185,236.4"/>
		<path class="st23" d="M147.6,256.5c0,0-5.1,7.4-2.9,21.2c1.6,9.9,7.3,18.5,15.8,23c4.2,2.2,8.3,3.1,11.3,2.5c0-0.1,2.1-7,2.3-8.1
			C174.4,294.1,143,279.8,147.6,256.5"/>
		<path class="st6" d="M166.7,280.5c4.5,0.7,18.8,3.3,33.4,11.3c2,1.1,3.7,2.6,5.1,4.4c1.5,2.1,2.2,4.2,1.6,5.3
			c-1,1.6-4.3-3.2-11.5-4.2c-7.3-1.1-28.3,2.1-32.8-1.6c-4-3.2-5.9-12.2,0.3-14.8C163.9,280.5,165.3,280.3,166.7,280.5"/>
		<path class="st12" d="M169.7,281h1.7c0,0-5,11.2-4.4,16.2c0.1,0.2-4.6-0.4-5.4-2.3C160.8,293.2,169.7,281,169.7,281"/>
		<path class="st23" d="M145.1,266.5c0,0,1.4,29.2,19.3,30.2c-0.5-0.4,3.8-14.8,9.7-15.1c0,0.1-7.3-13.6-10.4-22.7
			c-1.7-5-6.9-7.7-11.7-6C148.4,254.2,145.3,257.9,145.1,266.5"/>
		<path class="st5" d="M157,267.4l-0.7,0.7c-0.1,0.1-0.3,0.1-0.4,0c-0.1-0.1-0.1-0.3,0-0.5l0.7-0.7c0.1-0.1,0.3-0.1,0.4,0
			S157.1,267.3,157,267.4L157,267.4z M157,272.3c-0.1-0.1-0.3-0.1-0.4,0l-0.7,0.7c-0.1,0.1-0.1,0.3,0,0.5c0.1,0.1,0.3,0.1,0.4,0
			l0.7-0.7C157.1,272.6,157.1,272.4,157,272.3L157,272.3z M153.3,264.5l0.7,0.7c0.1,0.1,0.3,0.1,0.4,0c0.1-0.1,0.1-0.3,0-0.5
			l-0.7-0.7c-0.1-0.1-0.3-0.1-0.4,0C153.2,264.2,153.2,264.4,153.3,264.5L153.3,264.5z M157,275.2c-0.1-0.1-0.3-0.1-0.4,0l-0.7,0.7
			c-0.1,0.1-0.1,0.3,0,0.5c0.1,0.1,0.3,0.1,0.4,0l0.7-0.7C157.1,275.6,157.1,275.4,157,275.2L157,275.2z M156.1,259.3l0.7-0.7
			c0.1-0.1,0.1-0.3,0-0.5c-0.1-0.1-0.3-0.1-0.4,0c0,0,0,0,0,0l-0.7,0.7c-0.1,0.1-0.1,0.3,0,0.5C155.8,259.5,156,259.5,156.1,259.3
			 M157,286.4c-0.1-0.1-0.3-0.1-0.4,0l-0.7,0.7c-0.1,0.1-0.1,0.3,0,0.5c0.1,0.1,0.3,0.1,0.4,0l0.7-0.7
			C157.1,286.8,157.1,286.6,157,286.4L157,286.4z M155.7,281.7c0.1,0.1,0.3,0.1,0.4,0l0.7-0.7c0.1-0.1,0.1-0.3,0-0.5
			c-0.1-0.1-0.3-0.1-0.4,0l-0.7,0.7C155.5,281.4,155.5,281.6,155.7,281.7L155.7,281.7z M155.7,292.9c0.1,0.1,0.3,0.1,0.4,0l0.7-0.7
			c0.1-0.1,0.1-0.3,0-0.5c-0.1-0.1-0.3-0.1-0.4,0l-0.7,0.7C155.5,292.6,155.5,292.8,155.7,292.9L155.7,292.9z M157,289.4
			c-0.1-0.1-0.3-0.1-0.4,0l-0.7,0.7c-0.1,0.1-0.1,0.3,0,0.5c0.1,0.1,0.3,0.1,0.4,0l0.7-0.7C157.1,289.7,157.1,289.5,157,289.4
			L157,289.4L157,289.4z M157,283.5c-0.1-0.1-0.3-0.1-0.4,0l-0.7,0.7c-0.1,0.1-0.1,0.3,0,0.5c0.1,0.1,0.3,0.1,0.4,0l0.7-0.7
			C157.1,283.8,157.1,283.6,157,283.5L157,283.5L157,283.5z M154,254c0.1,0.1,0.3,0.1,0.4,0c0.1-0.1,0.1-0.3,0-0.5l-0.7-0.7
			c-0.1-0.1-0.3-0.1-0.4,0c-0.1,0.1-0.1,0.3,0,0.5L154,254z M153.3,256.3l0.7,0.7c0.1,0.1,0.3,0.1,0.4,0c0.1-0.1,0.1-0.3,0-0.5
			l-0.7-0.7c-0.1-0.1-0.3-0.1-0.4,0C153.2,255.9,153.2,256.1,153.3,256.3 M153.7,286.4c-0.1-0.1-0.3-0.1-0.4,0
			c-0.1,0.1-0.1,0.3,0,0.5l0.7,0.7c0.1,0.1,0.3,0.1,0.4,0c0.1-0.1,0.1-0.3,0-0.5L153.7,286.4z M153.3,261.6l0.7,0.7
			c0.1,0.1,0.3,0.1,0.4,0c0.1-0.1,0.1-0.3,0-0.5l-0.7-0.7c-0.1-0.1-0.3-0.1-0.4,0C153.2,261.3,153.2,261.5,153.3,261.6L153.3,261.6z
			 M157,255.8c-0.1-0.1-0.3-0.1-0.4,0l-0.7,0.7c-0.1,0.1-0.1,0.3,0,0.5c0.1,0.1,0.3,0.1,0.4,0l0.7-0.7
			C157.1,256.1,157.1,255.9,157,255.8L157,255.8z M154.4,284.2l-0.7-0.7c-0.1-0.1-0.3-0.1-0.4,0c-0.1,0.1-0.1,0.3,0,0.5l0.7,0.7
			c0.1,0.1,0.3,0.1,0.4,0C154.5,284.5,154.5,284.3,154.4,284.2z M157,264c-0.1-0.1-0.3-0.1-0.4,0l-0.7,0.7c-0.1,0.1-0.1,0.3,0,0.5
			c0.1,0.1,0.3,0.1,0.4,0l0.7-0.7C157.1,264.4,157.1,264.2,157,264C157,264,157,264,157,264L157,264z M157,261.1
			c-0.1-0.1-0.3-0.1-0.4,0l-0.7,0.7c-0.1,0.1-0.1,0.3,0,0.5c0.1,0.1,0.3,0.1,0.4,0l0.7-0.7C157.1,261.5,157.1,261.3,157,261.1
			C157,261.1,157,261.1,157,261.1L157,261.1z M157,252.9c-0.1-0.1-0.3-0.1-0.4,0l-0.7,0.7c-0.1,0.1-0.1,0.3,0,0.5
			c0.1,0.1,0.3,0.1,0.4,0l0.7-0.7C157.1,253.2,157.1,253,157,252.9C157,252.9,157,252.9,157,252.9L157,252.9z M157,278.2
			c-0.1-0.1-0.3-0.1-0.4,0l-0.7,0.7c-0.1,0.1-0.1,0.3,0,0.5c0.1,0.1,0.3,0.1,0.4,0l0.7-0.7C157.1,278.5,157.1,278.3,157,278.2
			L157,278.2z M149.5,272.3c-0.1-0.1-0.3-0.1-0.4,0l-0.7,0.7c-0.1,0.1-0.1,0.3,0,0.5c0.1,0.1,0.3,0.1,0.4,0l0.7-0.7
			C149.6,272.6,149.6,272.4,149.5,272.3L149.5,272.3z M149.5,267c-0.1-0.1-0.3-0.1-0.4,0l-0.7,0.7c-0.1,0.1-0.1,0.3,0,0.5
			c0.1,0.1,0.3,0.1,0.4,0l0.7-0.7C149.6,267.3,149.6,267.1,149.5,267L149.5,267z M149.5,264c-0.1-0.1-0.3-0.1-0.4,0l-0.7,0.7
			c-0.1,0.1-0.1,0.3,0,0.5c0.1,0.1,0.3,0.1,0.4,0l0.7-0.7C149.6,264.4,149.6,264.2,149.5,264L149.5,264z M149.5,255.8
			c-0.1-0.1-0.3-0.1-0.4,0l-0.7,0.7c-0.1,0.1-0.1,0.3,0,0.5c0.1,0.1,0.3,0.1,0.4,0l0.7-0.7C149.6,256.1,149.6,255.9,149.5,255.8
			L149.5,255.8z M149.5,261.1c-0.1-0.1-0.3-0.1-0.4,0l-0.7,0.7c-0.1,0.1-0.1,0.3,0,0.5c0.1,0.1,0.3,0.1,0.4,0l0.7-0.7
			C149.6,261.5,149.6,261.2,149.5,261.1L149.5,261.1z M148.6,259.3l0.7-0.7c0.1-0.1,0.1-0.3,0-0.5c-0.1-0.1-0.3-0.1-0.4,0l-0.7,0.7
			c-0.1,0.1-0.1,0.3,0,0.5C148.3,259.5,148.5,259.5,148.6,259.3 M149,278.2l-0.7,0.7c-0.1,0.1-0.1,0.3,0,0.5c0.1,0.1,0.3,0.1,0.4,0
			l0.7-0.7c0.1-0.1,0.1-0.3,0-0.5C149.3,278,149.2,278,149,278.2L149,278.2z M148.1,270.5c0.1,0.1,0.3,0.1,0.4,0l0.7-0.7
			c0.1-0.1,0.1-0.3,0-0.5c-0.1-0.1-0.3-0.1-0.4,0l-0.7,0.7C148,270.2,148,270.4,148.1,270.5L148.1,270.5z M149.5,275.2
			c-0.1-0.1-0.3-0.1-0.4,0l-0.7,0.7c-0.1,0.1-0.1,0.3,0,0.5c0.1,0.1,0.3,0.1,0.4,0l0.7-0.7C149.6,275.6,149.6,275.4,149.5,275.2
			L149.5,275.2z M146,269.4c-0.1,0.1-0.1,0.3,0,0.5l0.7,0.7c0.1,0.1,0.3,0.1,0.4,0c0.1-0.1,0.1-0.3,0-0.5l-0.7-0.7
			C146.3,269.2,146.1,269.2,146,269.4L146,269.4z M146.9,276.4c0.1-0.1,0.1-0.3,0-0.5l-0.6-0.6c0.1,0.4,0.2,0.8,0.3,1.2
			C146.7,276.5,146.8,276.5,146.9,276.4L146.9,276.4z M148.1,281.7c0.1,0.1,0.3,0.1,0.4,0l0.7-0.7c0.1-0.1,0.1-0.3,0-0.5
			c-0.1-0.1-0.3-0.1-0.4,0l-0.7,0.7c-0.1,0.1-0.1,0.2-0.1,0.2C148.1,281.6,148.1,281.6,148.1,281.7
			C148.1,281.7,148.1,281.7,148.1,281.7L148.1,281.7z M149.5,283.5c-0.1-0.1-0.3-0.1-0.4,0l-0.2,0.2c0.1,0.2,0.2,0.4,0.3,0.6
			l0.3-0.3C149.6,283.8,149.6,283.6,149.5,283.5C149.5,283.5,149.5,283.5,149.5,283.5L149.5,283.5z M146.4,273.5
			c0.1,0.1,0.3,0.1,0.4,0c0.1-0.1,0.1-0.3,0-0.5l-0.7-0.7c-0.1-0.1-0.3-0.1-0.4,0c0,0,0,0,0,0.1c0,0.1,0,0.3,0.1,0.4L146.4,273.5z
			 M155.7,270.5c0.1,0.1,0.3,0.1,0.4,0l0.7-0.7c0.1-0.1,0.1-0.3,0-0.5c-0.1-0.1-0.3-0.1-0.4,0c0,0,0,0,0,0l-0.7,0.7
			C155.5,270.2,155.5,270.4,155.7,270.5C155.7,270.5,155.7,270.5,155.7,270.5L155.7,270.5z M145.8,264.5l0.7,0.7
			c0.1,0.1,0.3,0.1,0.4,0c0.1-0.1,0.1-0.3,0-0.5l-0.7-0.7c-0.1-0.1-0.3-0.1-0.4,0C145.6,264.2,145.6,264.4,145.8,264.5 M146.4,262.3
			c0.1,0.1,0.3,0.1,0.4,0c0.1-0.1,0.1-0.3,0-0.5l-0.7-0.7c-0.1-0.1-0.3-0.1-0.4,0c-0.1,0.1-0.1,0.3,0,0.5L146.4,262.3z M147.1,259.3
			c0.1-0.1,0.1-0.3,0-0.5l-0.6-0.6c-0.1,0.2-0.2,0.4-0.3,0.7l0.4,0.4C146.8,259.5,147,259.5,147.1,259.3L147.1,259.3z M146.4,268.1
			c0.1,0.1,0.3,0.1,0.4,0c0.1-0.1,0.1-0.3,0-0.5l-0.7-0.7c-0.1-0.1-0.3-0.1-0.4,0c-0.1,0.1-0.1,0.3,0,0.5L146.4,268.1z M170.3,283.5
			c-0.1-0.1-0.3-0.1-0.4,0c-0.1,0.1-0.1,0.3,0,0.5l0,0C170.1,283.8,170.2,283.7,170.3,283.5L170.3,283.5z M162.4,278.6l0.7,0.7
			c0.1,0.1,0.3,0.1,0.4,0c0.1-0.1,0.1-0.3,0-0.5l-0.7-0.7c-0.1-0.1-0.3-0.1-0.4,0C162.2,278.3,162.2,278.5,162.4,278.6 M162.4,275.7
			l0.7,0.7c0.1,0.1,0.3,0.1,0.4,0c0.1-0.1,0.1-0.3,0-0.5c0,0,0,0,0,0l-0.7-0.7c-0.1-0.1-0.3-0.1-0.4,0
			C162.2,275.4,162.2,275.6,162.4,275.7L162.4,275.7z M162.4,286.9l0.7,0.7c0.1,0.1,0.3,0.1,0.4,0c0.1-0.1,0.1-0.3,0-0.5l-0.7-0.7
			c-0.1-0.1-0.3-0.1-0.4,0C162.2,286.6,162.2,286.8,162.4,286.9 M162.4,272.8l0.7,0.7c0.1,0.1,0.3,0.1,0.4,0c0.1-0.1,0.1-0.3,0-0.5
			l-0.7-0.7c-0.1-0.1-0.3-0.1-0.4,0C162.2,272.4,162.2,272.6,162.4,272.8z M162.4,284l0.7,0.7c0.1,0.1,0.3,0.1,0.4,0
			c0.1-0.1,0.1-0.3,0-0.5l-0.7-0.7c-0.1-0.1-0.3-0.1-0.4,0C162.2,283.6,162.2,283.8,162.4,284z M162.4,264.5l0.7,0.7
			c0.1,0.1,0.3,0.1,0.4,0c0.1-0.1,0.1-0.3,0-0.5l-0.7-0.7c-0.1-0.1-0.3-0.1-0.4,0C162.2,264.2,162.2,264.4,162.4,264.5 M162.4,267.4
			l0.7,0.7c0.1,0.1,0.3,0.1,0.4,0c0.1-0.1,0.1-0.3,0-0.5l-0.7-0.7c-0.1-0.1-0.3-0.1-0.4,0C162.2,267.1,162.2,267.3,162.4,267.4
			L162.4,267.4z M165,265.2c0.1,0.1,0.3,0.1,0.4,0l0.5-0.5c-0.1-0.2-0.2-0.4-0.3-0.6l-0.6,0.7C164.8,264.9,164.8,265.1,165,265.2
			L165,265.2L165,265.2z M163,262.3c0.1,0.1,0.3,0.1,0.4,0c0.1-0.1,0.1-0.3,0-0.5l-0.7-0.7c-0.1-0.1-0.3-0.1-0.4,0
			c-0.1,0.1-0.1,0.3,0,0.5L163,262.3z M172.5,278.9c-0.1,0.1-0.1,0.3,0,0.5c0.1,0.1,0.2,0.1,0.3,0.1
			C172.7,279.2,172.6,279,172.5,278.9L172.5,278.9z M165.4,291.7l-0.7,0.7c-0.1,0.1-0.1,0.3,0,0.5c0.1,0.1,0.3,0.1,0.4,0l0,0
			c0.1-0.4,0.3-0.8,0.4-1.2C165.6,291.6,165.5,291.7,165.4,291.7L165.4,291.7z M172.9,280.6l-0.7,0.7c-0.1,0.1-0.1,0.3,0,0.5
			c0.1,0.1,0.3,0.1,0.4,0l0.7-0.7c0.1-0.1,0.1-0.3,0-0.5C173.2,280.4,173,280.4,172.9,280.6L172.9,280.6z M166.1,267
			c-0.1-0.1-0.3-0.1-0.4,0l-0.7,0.7c-0.1,0.1-0.1,0.3,0,0.5c0.1,0.1,0.3,0.1,0.4,0l0.7-0.7C166.2,267.3,166.2,267.1,166.1,267
			L166.1,267z M163,295.8c0.1,0.1,0.3,0.1,0.4,0c0.1-0.1,0.1-0.3,0-0.5l-0.7-0.7c-0.1-0.1-0.3-0.1-0.4,0c-0.1,0.1-0.1,0.3,0,0.5
			L163,295.8z M163.7,281.2l-0.7-0.7c-0.1-0.1-0.3-0.1-0.4,0c-0.1,0.1-0.1,0.3,0,0.4l0.7,0.7c0.1,0.1,0.3,0.1,0.4,0
			S163.8,281.4,163.7,281.2L163.7,281.2z M163.3,292.9c0.1,0.1,0.3,0.1,0.4,0c0.1-0.1,0.1-0.3,0-0.5c0,0,0,0,0,0l-0.7-0.7
			c-0.1-0.1-0.3-0.1-0.4,0c-0.1,0.1-0.1,0.3,0,0.5L163.3,292.9z M162.6,258.2c-0.1,0.1-0.1,0.3,0,0.5l0.7,0.7c0.1,0.1,0.3,0.1,0.4,0
			c0,0,0,0,0,0c-0.1-0.2-0.1-0.3-0.2-0.5c0-0.1,0-0.1-0.1-0.2l-0.4-0.5C162.9,258.1,162.7,258.1,162.6,258.2
			C162.6,258.2,162.6,258.2,162.6,258.2L162.6,258.2z M162.4,289.8l0.7,0.7c0.1,0.1,0.3,0.1,0.4,0c0.1-0.1,0.1-0.3,0-0.5l-0.7-0.7
			c-0.1-0.1-0.3-0.1-0.4,0C162.2,289.5,162.2,289.7,162.4,289.8z M163.7,270.1l-0.7-0.7c-0.1-0.1-0.3-0.1-0.4,0
			c-0.1,0.1-0.1,0.3,0,0.5l0.7,0.7c0.1,0.1,0.3,0.1,0.4,0C163.8,270.4,163.8,270.2,163.7,270.1 M170.6,276.4c0.1,0.1,0.3,0.1,0.4,0
			c0.1-0.1,0.1-0.3,0-0.5c0,0,0,0,0,0l-0.7-0.7c-0.1-0.1-0.3-0.1-0.4,0c-0.1,0.1-0.1,0.3,0,0.5L170.6,276.4z M154.6,258.9l-0.7-0.7
			c-0.1-0.1-0.3-0.1-0.4,0c-0.1,0.1-0.1,0.3,0,0.5l0.7,0.7c0.1,0.1,0.3,0.1,0.4,0C154.8,259.2,154.8,259,154.6,258.9
			C154.7,258.9,154.6,258.9,154.6,258.9 M169.9,278.6l0.7,0.7c0.1,0.1,0.3,0.1,0.4,0c0.1-0.1,0.1-0.3,0-0.5l-0.7-0.7
			c-0.1-0.1-0.3-0.1-0.4,0C169.8,278.3,169.8,278.5,169.9,278.6L169.9,278.6z M154.6,270.1l-0.7-0.7c-0.1-0.1-0.3-0.1-0.4,0
			c-0.1,0.1-0.1,0.3,0,0.5l0.7,0.7c0.1,0.1,0.3,0.1,0.4,0C154.8,270.4,154.8,270.2,154.6,270.1 M154.6,292.4l-0.7-0.7
			c0,0-0.1-0.1-0.1-0.1C154.1,291.9,154.4,292.2,154.6,292.4C154.7,292.5,154.7,292.4,154.6,292.4L154.6,292.4z M154,290.5
			c0.1,0.1,0.3,0.1,0.4,0c0.1-0.1,0.1-0.3,0-0.5l-0.7-0.7c-0.1-0.1-0.3-0.1-0.4,0c-0.1,0.1-0.1,0.3,0,0.5L154,290.5z M153.3,272.8
			l0.7,0.7c0.1,0.1,0.3,0.1,0.4,0c0.1-0.1,0.1-0.3,0-0.5l-0.7-0.7c-0.1-0.1-0.3-0.1-0.4,0C153.2,272.4,153.2,272.6,153.3,272.8
			L153.3,272.8z M153.3,275.7l0.7,0.7c0.1,0.1,0.3,0.1,0.4,0c0.1-0.1,0.1-0.3,0-0.5c0,0,0,0,0,0l-0.7-0.7c-0.1-0.1-0.3-0.1-0.4,0
			C153.2,275.4,153.2,275.6,153.3,275.7L153.3,275.7z M154.6,281.2l-0.7-0.7c-0.1-0.1-0.3-0.1-0.4,0c-0.1,0.1-0.1,0.3,0,0.5l0.7,0.7
			c0.1,0.1,0.3,0.1,0.4,0S154.8,281.4,154.6,281.2L154.6,281.2z M153.3,278.6l0.7,0.7c0.1,0.1,0.3,0.1,0.4,0c0.1-0.1,0.1-0.3,0-0.5
			l-0.7-0.7c-0.1-0.1-0.3-0.1-0.4,0C153.2,278.3,153.2,278.5,153.3,278.6 M166.1,283.5c-0.1-0.1-0.3-0.1-0.4,0l-0.7,0.7
			c-0.1,0.1-0.1,0.3,0,0.5c0.1,0.1,0.3,0.1,0.4,0l0.7-0.7C166.2,283.8,166.2,283.6,166.1,283.5L166.1,283.5z M166.1,278.2
			c-0.1-0.1-0.3-0.1-0.4,0l-0.7,0.7c-0.1,0.1-0.1,0.3,0,0.5c0.1,0.1,0.3,0.1,0.4,0l0.7-0.7C166.2,278.5,166.2,278.3,166.1,278.2
			L166.1,278.2z M165.6,289.3L165,290c-0.1,0.1-0.1,0.3,0,0.5c0.1,0.1,0.3,0.1,0.4,0l0.7-0.7c0.1-0.1,0.1-0.3,0-0.5
			C165.9,289.2,165.8,289.2,165.6,289.3 M166.1,272.3c-0.1-0.1-0.3-0.1-0.4,0L165,273c-0.1,0.1-0.1,0.3,0,0.5c0.1,0.1,0.3,0.1,0.4,0
			l0.7-0.7C166.2,272.6,166.2,272.4,166.1,272.3L166.1,272.3z M166.1,275.2c-0.1-0.1-0.3-0.1-0.4,0l-0.7,0.7c-0.1,0.1-0.1,0.3,0,0.5
			c0.1,0.1,0.3,0.1,0.4,0l0.7-0.7C166.2,275.6,166.2,275.4,166.1,275.2L166.1,275.2z M165.2,270.5l0.7-0.7c0.1-0.1,0.1-0.3,0-0.5
			c-0.1-0.1-0.3-0.1-0.4,0l-0.7,0.7c-0.1,0.1-0.1,0.3,0,0.5C164.9,270.7,165.1,270.7,165.2,270.5L165.2,270.5z M164.7,281.7
			c0.1,0.1,0.3,0.1,0.4,0l0.7-0.7c0.1-0.1,0.1-0.3,0-0.5c-0.1-0.1-0.3-0.1-0.4,0l-0.7,0.7C164.6,281.4,164.6,281.6,164.7,281.7
			L164.7,281.7L164.7,281.7z M170.8,281.7c0.1,0.1,0.3,0.1,0.4,0c0.1-0.1,0.1-0.3,0-0.5l-0.7-0.7c-0.1-0.1-0.3-0.1-0.4,0
			c-0.1,0.1-0.1,0.3,0,0.5L170.8,281.7z M153.3,267.4l0.7,0.7c0.1,0.1,0.3,0.1,0.4,0c0.1-0.1,0.1-0.3,0-0.5l-0.7-0.7
			c-0.1-0.1-0.3-0.1-0.4,0C153.2,267.1,153.2,267.3,153.3,267.4L153.3,267.4z M166.1,286.4c-0.1-0.1-0.3-0.1-0.4,0l-0.7,0.7
			c-0.1,0.1-0.1,0.3,0,0.5c0.1,0.1,0.3,0.1,0.4,0l0.7-0.7C166.2,286.8,166.2,286.5,166.1,286.4L166.1,286.4z"/>
		<path class="st2" d="M241.8,301.9h-35c-1,0-1.9-0.9-1.9-2c0-0.3,0.1-0.6,0.2-0.8l15.4-33.3c0.3-0.7,0.9-1.1,1.7-1.1h35
			c1,0,1.9,0.9,1.9,2c0,0.3-0.1,0.6-0.2,0.8l-15.4,33.3C243.1,301.5,242.5,301.9,241.8,301.9"/>
		<path class="st2" d="M175.2,299.7h36.1c0.6,0,1,0.5,1,1.1c0,0.6-0.5,1.1-1,1.1h-36.1c-0.6,0-1-0.5-1-1.1
			C174.1,300.2,174.6,299.7,175.2,299.7"/>
		<path class="st24" d="M233.3,278.1c2.7,0,4.9,2.3,4.9,5.2c0,2.8-2.2,5.2-4.9,5.2c-2.7,0-4.9-2.3-4.9-5.2
			C228.4,280.4,230.6,278.1,233.3,278.1"/>
		<path class="st9" d="M180.5,238.2c-0.3-1.6,0.6-3.1,2.1-3.5c1.5-0.3,3,0.6,3.3,2.2c0.3,1.6-0.6,3.1-2.1,3.5c0,0,0,0,0,0
			C182.3,240.8,180.8,239.8,180.5,238.2 M180.7,238.2c0.3,1.4,1.6,2.3,3,2c1.4-0.3,2.2-1.7,1.9-3.1s-1.6-2.3-3-2c0,0,0,0,0,0
			C181.3,235.3,180.4,236.7,180.7,238.2L180.7,238.2z"/>
		<path class="st9" d="M173.4,235.3c-0.4-1.8,0.7-3.5,2.4-3.9c1.7-0.4,3.3,0.7,3.7,2.5c0.4,1.8-0.7,3.5-2.4,3.9
			C175.4,238.1,173.7,237,173.4,235.3 M173.6,235.2c0.3,1.6,1.8,2.6,3.4,2.3c1.5-0.3,2.5-1.9,2.2-3.5c-0.3-1.6-1.8-2.6-3.4-2.3
			C174.3,232,173.3,233.6,173.6,235.2"/>
		<polygon class="st9" points="179.2,235.5 179.3,235.3 181,236.1 180.8,236.3 		"/>
	</g>
	<path class="st9" d="M178.6,301.7h131.3c2.5,0,4.6,2.6,4.6,5.9c0,3.2-2.1,5.9-4.6,5.9H178.6c-2.5,0-4.6-2.6-4.6-5.9
		C174,304.3,176.1,301.7,178.6,301.7"/>
	<path class="st9" d="M183.6,303.9L183.6,303.9c1.7,0,3.2,1.4,3.2,3.2V407c0,1.7-1.4,3.2-3.2,3.2c-1.7,0-3.2-1.4-3.2-3.2v-99.9
		C180.5,305.3,181.9,303.9,183.6,303.9"/>
	<g>
		<path class="st4" d="M263.1,292.1h36.4v9.6h-36.4c-0.5,0-1-0.4-1-1v-7.6C262.1,292.5,262.6,292.1,263.1,292.1"/>
		<rect x="264.1" y="293.4" class="st5" width="35.5" height="7.1"/>
		<g class="st25">
			<g>
				<defs>
					<rect id="SVGID_23_" x="264.1" y="294.6" width="35.5" height="0.2"/>
				</defs>
				<clipPath id="SVGID_2_">
					<use xlink:href="#SVGID_23_"  style="overflow:visible;"/>
				</clipPath>
				<rect x="264.1" y="294.6" class="st26" width="35.5" height="0.2"/>
			</g>
		</g>
		<g class="st25">
			<g>
				<defs>
					<rect id="SVGID_25_" x="264.1" y="296.1" width="35.5" height="0.2"/>
				</defs>
				<clipPath id="SVGID_3_">
					<use xlink:href="#SVGID_25_"  style="overflow:visible;"/>
				</clipPath>
				<rect x="264.1" y="296.1" class="st27" width="35.5" height="0.2"/>
			</g>
		</g>
		<g class="st25">
			<g>
				<defs>
					<rect id="SVGID_27_" x="264.1" y="297.5" width="35.5" height="0.2"/>
				</defs>
				<clipPath id="SVGID_4_">
					<use xlink:href="#SVGID_27_"  style="overflow:visible;"/>
				</clipPath>
				<rect x="264.1" y="297.5" class="st28" width="35.5" height="0.2"/>
			</g>
		</g>
		<g class="st25">
			<g>
				<defs>
					<rect id="SVGID_29_" x="264.1" y="299" width="35.5" height="0.2"/>
				</defs>
				<clipPath id="SVGID_5_">
					<use xlink:href="#SVGID_29_"  style="overflow:visible;"/>
				</clipPath>
				<rect x="264.1" y="299" class="st29" width="35.5" height="0.2"/>
			</g>
		</g>
		<path class="st14" d="M262,284.3h29.8v7.9H262c-0.4,0-0.8-0.4-0.8-0.8v-6.2C261.2,284.7,261.5,284.3,262,284.3"/>
		<rect x="262.7" y="285.4" class="st5" width="29" height="5.8"/>
		<g class="st25">
			<g>
				<defs>
					<rect id="SVGID_31_" x="262.7" y="286.4" width="29" height="0.2"/>
				</defs>
				<clipPath id="SVGID_6_">
					<use xlink:href="#SVGID_31_"  style="overflow:visible;"/>
				</clipPath>
				<rect x="262.7" y="286.4" class="st30" width="29" height="0.2"/>
			</g>
		</g>
		<g class="st25">
			<g>
				<defs>
					<rect id="SVGID_33_" x="262.7" y="287.6" width="29" height="0.2"/>
				</defs>
				<clipPath id="SVGID_7_">
					<use xlink:href="#SVGID_33_"  style="overflow:visible;"/>
				</clipPath>
				<rect x="262.7" y="287.6" class="st31" width="29" height="0.2"/>
			</g>
		</g>
		<g class="st25">
			<g>
				<defs>
					<rect id="SVGID_35_" x="262.7" y="288.8" width="29" height="0.2"/>
				</defs>
				<clipPath id="SVGID_8_">
					<use xlink:href="#SVGID_35_"  style="overflow:visible;"/>
				</clipPath>
				<rect x="262.7" y="288.8" class="st32" width="29" height="0.2"/>
			</g>
		</g>
		<g class="st25">
			<g>
				<defs>
					<rect id="SVGID_37_" x="262.7" y="290" width="29" height="0.2"/>
				</defs>
				<clipPath id="SVGID_9_">
					<use xlink:href="#SVGID_37_"  style="overflow:visible;"/>
				</clipPath>
				<rect x="262.7" y="290" class="st33" width="29" height="0.2"/>
			</g>
		</g>
		<path class="st15" d="M267.3,277.8h29.8v6.7h-29.8c-0.4,0-0.8-0.4-0.8-0.8v-5.1C266.5,278.1,266.9,277.8,267.3,277.8"/>
		<rect x="268.1" y="278.8" class="st5" width="29" height="4.6"/>
		<g class="st25">
			<g>
				<defs>
					<rect id="SVGID_39_" x="268.1" y="279.8" width="29" height="0.2"/>
				</defs>
				<clipPath id="SVGID_10_">
					<use xlink:href="#SVGID_39_"  style="overflow:visible;"/>
				</clipPath>
				<rect x="268.1" y="279.8" class="st34" width="29" height="0.2"/>
			</g>
		</g>
		<g class="st25">
			<g>
				<defs>
					<rect id="SVGID_41_" x="268.1" y="281" width="29" height="0.2"/>
				</defs>
				<clipPath id="SVGID_11_">
					<use xlink:href="#SVGID_41_"  style="overflow:visible;"/>
				</clipPath>
				<rect x="268.1" y="281" class="st35" width="29" height="0.2"/>
			</g>
		</g>
		<g class="st25">
			<g>
				<defs>
					<rect id="SVGID_43_" x="268.1" y="282.2" width="29" height="0.2"/>
				</defs>
				<clipPath id="SVGID_12_">
					<use xlink:href="#SVGID_43_"  style="overflow:visible;"/>
				</clipPath>
				<rect x="268.1" y="282.2" class="st36" width="29" height="0.2"/>
			</g>
		</g>
	</g>
	<path class="st4" d="M369.4,198.9c-6.7,1.3-8.1,7.7-8.2,8.1c-0.1,0.4-2.5-1.6,0.8-7.9c3.3-6.3,12-6.9,14.3-7.1
		c12-0.8,13.4,16.9,14.5,20.8c0.9,3.2-1.5,5.2-4.2,5.8c-11.9,2.3-11.9-2-10-2.7c1.9-0.7,3.6-4.3,1.6-5.5c-2-1.1-2.4,2.2-2.7,2.6
		c-0.2,0.4-1,0.2-0.8-0.3c0.3-0.7,0.1-1.5-0.5-2C368.7,207,369.4,198.9,369.4,198.9"/>
	<path class="st2" d="M430.6,366.1c-0.5-0.5-9.5-9.7-13.4-14c-4.7-5.1-10.5-6.4-11.3-10.7c-0.7-4-1.3-8.3-1.4-20.7
		c0.2-9.1,1.3-11.4,1.8-17.7c0.8-11.5-2.2-26-7.6-35.1c1.3-1.1-0.1-1.7,0-1.9c0.4-0.9-19.5-40.6-19.9-41.2c-1.7,3-10.2,4.9-10.2,4.9
		l-3.5,9.1c-6.1,11.1-0.3,46.5-0.1,50.6c0,0,0,0,0,0c0.2,4.7,0.6,10.5,1.5,16.7c-2.6,11-4.5,25.7-4.5,35.9c0,12.2-3.9,53.5-3.6,55.1
		c0.3,1.7,11.6,7.5,13.7,7.2c0,0,30.5,7.9,58.6-29C431,375.5,432.1,367.5,430.6,366.1z"/>
	<path class="st2" d="M378.8,224.8c0,0,14.6-4.3,28.6,20.9c6.7,11,16.2,40.9,16.6,42.3c0.4,1.5-10.9,4.9-11,4.1
		C407.4,267.2,368.3,247.4,378.8,224.8"/>
</g>
<path class="st4" d="M367,197.7c0,0,6.4,17.5,5.2,21.3c-0.7,2.2-4,2.5-4,2.5s2.3,3.8,1.9,5c-0.4,1.2-4.1,4.1-3.9,5.3
	s-2,12.6,13.5,7.5c5.9-2.6,6.5-12.4,9.4-13.1c2,1,4,2.3,4.7,2.8c0.7,0.5-0.7-16.7-6.4-29.3c-5.7-12.6-19.2-6.2-20.4-5.4
	C365.7,195.1,367,197.7,367,197.7z"/>
</svg>
