<?xml version="1.0" encoding="utf-8"?>
<svg viewBox="0 0 500 500" xmlns="http://www.w3.org/2000/svg">
  <g transform="matrix(1, 0, 0, 1, 113.738205, 109.079971)">
    <g/>
    <g transform="matrix(1.18673, 0, 0, 1.196637, -15.000958, -23.494236)" style="">
      <g>
        <g>
          <path class="st1" d="M260.6,111.1c-0.3-1.8-2-3.1-3.8-2.8c-1.8,0.3-3.1,2-2.8,3.8c0.9,6.2,1.4,12.6,1.4,18.9 c0,68.5-55.8,124.3-124.3,124.3c-47.1,0-89.3-25.9-110.7-67.6c2.6-2.2,4.4-5.4,4.4-9.1c0-6.6-5.3-11.9-11.9-11.9 c-6.6,0-11.9,5.3-11.9,11.9c0,6.6,5.3,11.9,11.9,11.9c0.5,0,0.9-0.1,1.3-0.1c22.5,44.3,67.1,71.7,116.9,71.7 c72.3,0,131-58.8,131-131C262.1,124.4,261.6,117.6,260.6,111.1z M12.8,183.8c-2.9,0-5.2-2.3-5.2-5.2c0-2.9,2.3-5.2,5.2-5.2 s5.2,2.3,5.2,5.2C18,181.4,15.7,183.8,12.8,183.8z" style="fill: rgb(60, 102, 250);"/>
          <path class="st1" d="M4.8,153.5c0.2,0,0.3,0,0.5,0c1.8-0.3,3.1-2,2.8-3.8c-0.9-6.1-1.4-12.4-1.4-18.6C6.7,62.5,62.5,6.7,131,6.7 c46.5,0,88.4,25.4,110,66.4c-2.4,2.2-3.9,5.3-3.9,8.8c0,6.6,5.3,11.9,11.9,11.9c6.6,0,11.9-5.3,11.9-11.9 c0-6.6-5.3-11.9-11.9-11.9c-0.7,0-1.3,0.1-1.9,0.2C224.4,26.8,180.2,0,131,0C58.8,0,0,58.8,0,131c0,6.6,0.5,13.2,1.5,19.6 C1.7,152.3,3.1,153.5,4.8,153.5z M249.1,76.8c2.9,0,5.2,2.3,5.2,5.2c0,2.9-2.3,5.2-5.2,5.2c-2.9,0-5.2-2.3-5.2-5.2 C243.9,79.1,246.2,76.8,249.1,76.8z" style="fill: rgb(60, 102, 250);"/>
          <path class="st1" d="M24.7,127.8c-2.5,58,42.6,107.3,100.6,109.8c5.3,0.2,10.6,0.1,15.8-0.5c1.3-0.1,2.4-1.3,2.4-2.6 c0-0.1,0-0.3,0-0.4c-0.2-1.5-1.5-2.6-3-2.4c-4.9,0.5-10,0.7-15,0.5c-55-2.4-97.9-49.1-95.5-104.2C31.7,90.7,53.6,58,87.3,42 c1.7,2,4.1,3.3,6.9,3.4c5.3,0.2,9.7-3.9,10-9.1c0.2-5.3-3.9-9.7-9.1-10c-5.3-0.2-9.7,3.9-10,9.1c0,0.5,0,1.1,0.1,1.6 C49.5,53.8,26.4,88.4,24.7,127.8z M94.8,31.7c2.3,0.1,4.1,2,4,4.3c-0.1,2.3-2,4.1-4.3,4c-2.3-0.1-4.1-2-4-4.3 C90.5,33.4,92.5,31.6,94.8,31.7z" style="fill: rgb(60, 102, 250);"/>
          <path class="st1" d="M235.1,137c2.5-58-42.6-107.3-100.6-109.8c-5.4-0.2-10.8-0.1-16.1,0.5c-1.5,0.2-2.6,1.5-2.4,3 c0.2,1.5,1.5,2.6,3,2.4c5-0.5,10.2-0.7,15.3-0.5c55,2.4,97.9,49.1,95.5,104.2c-1.6,35.6-21.4,66.9-52.4,83.5 c-1.6-1.7-3.9-2.8-6.4-2.9c-5.3-0.2-9.7,3.9-10,9.1c-0.2,5.3,3.9,9.7,9.1,10c5.3,0.2,9.7-3.9,10-9.1c0-0.8-0.1-1.5-0.2-2.3 C212.5,207.5,233.5,174.6,235.1,137z M170.3,231.1c-2.3-0.1-4.1-2-4-4.3c0.1-2.3,2-4.1,4.3-4c2.3,0.1,4.1,2,4,4.3 C174.5,229.4,172.6,231.2,170.3,231.1z" style="fill: rgb(60, 102, 250);"/>
        </g>
        <path class="st1" d="M165.9,81.7c-15.6-0.9-30.4,5.5-40.4,17.3c-0.4,0.4-0.3,1.1,0.1,1.5l9.6,7.8c0.4,0.4,1.1,0.3,1.5-0.1 c6.7-7.7,16.2-12.1,26.4-12.1c19.3,0,35,15.8,34.9,35.1c-0.1,19-15.9,34.2-34.9,34.2h-33.9c-7.1,0-8.6-4.3-8.6-8.4v-23.6 c0-0.6,0.5-1,1-1h13.8c0.6,0,1-0.5,1-1V119c0-0.6-0.5-1-1-1h-13.8c-0.6,0-1-0.5-1-1v-13.3c0-0.6-0.5-1-1-1 c0,0-13.4,0.1-13.4,14.4c0,0.6-0.5,1-1,1H81.3c-17.2,0-31.5,13.6-31.7,30.8c-0.3,17.5,13.9,31.7,31.2,31.7c8,0,15.5-3,21.3-8.4 c0.4-0.4,0.5-1.1,0-1.5l-8.8-8.8c-0.4-0.4-1-0.4-1.4,0c-3.5,3.2-8.2,4.7-13,4.2c-7.8-0.8-14-7.1-14.8-14.8 c-1.1-10.1,6.8-18.7,16.7-18.7h24.3c0.6,0,1,0.5,1,1V157c0,9.9,4.7,17.9,12.5,21.6c2.7,1.3,5.6,1.9,8.6,1.9l35.8,0 c27.5,0,49.8-22.6,49.4-50.1C212.1,104.5,191.7,83.2,165.9,81.7" style="fill: rgb(60, 102, 250);"/>
      </g>
      <g>
        <g>
          <linearGradient id="SVGID_1_" gradientUnits="userSpaceOnUse" x1="11.5063" y1="200.0574" x2="251.1308" y2="61.7101">
            <stop offset="0" style="stop-color:#241D69"/>
            <stop offset="0.75" style="stop-color:#241D69;stop-opacity:0"/>
          </linearGradient>
          <path class="st2" d="M260.6,111.1c-0.3-1.8-2-3.1-3.8-2.8c-1.8,0.3-3.1,2-2.8,3.8c0.9,6.2,1.4,12.6,1.4,18.9 c0,68.5-55.8,124.3-124.3,124.3c-47.1,0-89.3-25.9-110.7-67.6c2.6-2.2,4.4-5.4,4.4-9.1c0-6.6-5.3-11.9-11.9-11.9 c-6.6,0-11.9,5.3-11.9,11.9c0,6.6,5.3,11.9,11.9,11.9c0.5,0,0.9-0.1,1.3-0.1c22.5,44.3,67.1,71.7,116.9,71.7 c72.3,0,131-58.8,131-131C262.1,124.4,261.6,117.6,260.6,111.1z M12.8,183.8c-2.9,0-5.2-2.3-5.2-5.2c0-2.9,2.3-5.2,5.2-5.2 s5.2,2.3,5.2,5.2C18,181.4,15.7,183.8,12.8,183.8z" style="fill: url(#SVGID_1_);"/>
          <linearGradient id="SVGID_2_" gradientUnits="userSpaceOnUse" x1="11.5063" y1="200.0574" x2="251.1308" y2="61.7101">
            <stop offset="0" style="stop-color:#241D69"/>
            <stop offset="0.75" style="stop-color:#241D69;stop-opacity:0"/>
          </linearGradient>
          <path class="st3" d="M4.8,153.5c0.2,0,0.3,0,0.5,0c1.8-0.3,3.1-2,2.8-3.8c-0.9-6.1-1.4-12.4-1.4-18.6C6.7,62.5,62.5,6.7,131,6.7 c46.5,0,88.4,25.4,110,66.4c-2.4,2.2-3.9,5.3-3.9,8.8c0,6.6,5.3,11.9,11.9,11.9c6.6,0,11.9-5.3,11.9-11.9 c0-6.6-5.3-11.9-11.9-11.9c-0.7,0-1.3,0.1-1.9,0.2C224.4,26.8,180.2,0,131,0C58.8,0,0,58.8,0,131c0,6.6,0.5,13.2,1.5,19.6 C1.7,152.3,3.1,153.5,4.8,153.5z M249.1,76.8c2.9,0,5.2,2.3,5.2,5.2c0,2.9-2.3,5.2-5.2,5.2c-2.9,0-5.2-2.3-5.2-5.2 C243.9,79.1,246.2,76.8,249.1,76.8z" style="fill: url(#SVGID_2_);"/>
          <linearGradient id="SVGID_3_" gradientUnits="userSpaceOnUse" x1="11.5063" y1="200.0574" x2="251.1308" y2="61.7101">
            <stop offset="0" style="stop-color:#241D69"/>
            <stop offset="0.75" style="stop-color:#241D69;stop-opacity:0"/>
          </linearGradient>
          <path class="st4" d="M24.7,127.8c-2.5,58,42.6,107.3,100.6,109.8c5.3,0.2,10.6,0.1,15.8-0.5c1.3-0.1,2.4-1.3,2.4-2.6 c0-0.1,0-0.3,0-0.4c-0.2-1.5-1.5-2.6-3-2.4c-4.9,0.5-10,0.7-15,0.5c-55-2.4-97.9-49.1-95.5-104.2C31.7,90.7,53.6,58,87.3,42 c1.7,2,4.1,3.3,6.9,3.4c5.3,0.2,9.7-3.9,10-9.1c0.2-5.3-3.9-9.7-9.1-10c-5.3-0.2-9.7,3.9-10,9.1c0,0.5,0,1.1,0.1,1.6 C49.5,53.8,26.4,88.4,24.7,127.8z M94.8,31.7c2.3,0.1,4.1,2,4,4.3c-0.1,2.3-2,4.1-4.3,4c-2.3-0.1-4.1-2-4-4.3 C90.5,33.4,92.5,31.6,94.8,31.7z" style="fill: url(#SVGID_3_);"/>
          <linearGradient id="SVGID_4_" gradientUnits="userSpaceOnUse" x1="11.5063" y1="200.0574" x2="251.1308" y2="61.7101">
            <stop offset="0" style="stop-color:#241D69"/>
            <stop offset="0.75" style="stop-color:#241D69;stop-opacity:0"/>
          </linearGradient>
          <path class="st5" d="M235.1,137c2.5-58-42.6-107.3-100.6-109.8c-5.4-0.2-10.8-0.1-16.1,0.5c-1.5,0.2-2.6,1.5-2.4,3 c0.2,1.5,1.5,2.6,3,2.4c5-0.5,10.2-0.7,15.3-0.5c55,2.4,97.9,49.1,95.5,104.2c-1.6,35.6-21.4,66.9-52.4,83.5 c-1.6-1.7-3.9-2.8-6.4-2.9c-5.3-0.2-9.7,3.9-10,9.1c-0.2,5.3,3.9,9.7,9.1,10c5.3,0.2,9.7-3.9,10-9.1c0-0.8-0.1-1.5-0.2-2.3 C212.5,207.5,233.5,174.6,235.1,137z M170.3,231.1c-2.3-0.1-4.1-2-4-4.3c0.1-2.3,2-4.1,4.3-4c2.3,0.1,4.1,2,4,4.3 C174.5,229.4,172.6,231.2,170.3,231.1z" style="fill: url(#SVGID_4_);"/>
        </g>
        <linearGradient id="SVGID_5_" gradientUnits="userSpaceOnUse" x1="11.5063" y1="200.0574" x2="251.1308" y2="61.7101">
          <stop offset="0" style="stop-color:#241D69"/>
          <stop offset="0.75" style="stop-color:#241D69;stop-opacity:0"/>
        </linearGradient>
        <path class="st6" d="M165.9,81.7c-15.6-0.9-30.4,5.5-40.4,17.3c-0.4,0.4-0.3,1.1,0.1,1.5l9.6,7.8c0.4,0.4,1.1,0.3,1.5-0.1 c6.7-7.7,16.2-12.1,26.4-12.1c19.3,0,35,15.8,34.9,35.1c-0.1,19-15.9,34.2-34.9,34.2h-33.9c-7.1,0-8.6-4.3-8.6-8.4v-23.6 c0-0.6,0.5-1,1-1h13.8c0.6,0,1-0.5,1-1V119c0-0.6-0.5-1-1-1h-13.8c-0.6,0-1-0.5-1-1v-13.3c0-0.6-0.5-1-1-1 c0,0-13.4,0.1-13.4,14.4c0,0.6-0.5,1-1,1H81.3c-17.2,0-31.5,13.6-31.7,30.8c-0.3,17.5,13.9,31.7,31.2,31.7c8,0,15.5-3,21.3-8.4 c0.4-0.4,0.5-1.1,0-1.5l-8.8-8.8c-0.4-0.4-1-0.4-1.4,0c-3.5,3.2-8.2,4.7-13,4.2c-7.8-0.8-14-7.1-14.8-14.8 c-1.1-10.1,6.8-18.7,16.7-18.7h24.3c0.6,0,1,0.5,1,1V157c0,9.9,4.7,17.9,12.5,21.6c2.7,1.3,5.6,1.9,8.6,1.9l35.8,0 c27.5,0,49.8-22.6,49.4-50.1C212.1,104.5,191.7,83.2,165.9,81.7" style="fill: url(#SVGID_5_);"/>
      </g>
    </g>
  </g>
</svg>